<?xml version="1.0" encoding="UTF-8"?>
<svg id="Layer_1" xmlns="http://www.w3.org/2000/svg" version="1.1" viewBox="0 0 1024 1024">
  <!-- Generator: Adobe Illustrator 29.4.0, SVG Export Plug-In . SVG Version: 2.1.0 Build 152)  -->
  <defs>
    <style>
      .st0 {
        fill: #3a6579;
        stroke: #799aa9;
        stroke-miterlimit: 10;
        stroke-width: 16px;
      }

      .st1 {
        fill: #929ea3;
      }

      .st2 {
        fill: #0b1b20;
      }

      .st3 {
        fill: #fefefe;
      }

      .st4 {
        fill: #576a74;
      }

      .st5 {
        fill: #e8e8e8;
      }
    </style>
  </defs>
  <circle class="st0" cx="513" cy="511" r="486"/>
  <path class="st1" d="M466.65,289.24l63.53-.06c11.19,0,22.43-.22,33.63.02,0,5.49.09,10.98,0,16.47l37.66.02.07,15.63h17.15c-.03,4.94-.13,9.89.14,14.83.11.76.27,1.51.26,2.28l16.82.03c-.02,5.48-.22,11.03.15,16.51,1.74,1.45,13.99.47,17.12.75,1.16,2.88.39,13.54.36,17.22l16.54-.03c.63,5.92-.14,11.97.27,17.91l16.8.08v35.88c1.15-.06,3.36-.42,4.26.34l11.64.05-.05,140.63c-5.56.11-11.12.15-16.68.11-.02,8.74-.56,17.83.12,26.52l.15.37c11.42.35,22.89.2,34.32.22.74,5.59.25,11.72.3,17.38l.26.1,35.39.18c.17,11.17.21,22.35.12,33.51-5.55.6-11.44.22-17.03.22.02,5.21.6,11.3-.24,16.39-11.42-.02-22.83.06-34.23.22,0,5.92.18,11.89-.13,17.8l-34.6.06c0,5.33.58,11.54-.28,16.75l-81.04-.37.02,16.74-33.68.06-.21,16.03-170.44-.28c0-5.13.28-10.46-.22-15.56l-.3-.15c.32-5.41.09-10.95.08-16.38,5.64.09,11.64.5,17.24-.12-.06-5.66-.04-11.34.06-17,.38-5.55.13-11.27.14-16.85-12.05.95-24.56.32-36.66.34-.03-11.76-.22-23.55.07-35.3l-17.71-.03c-.04-5.54-.05-11.1-.02-16.64-11.38-.3-22.89-.13-34.27.17.38-5.71.51-11.42,1.18-17.11l-21.91.05v-8.76h-17.71c-.23-11.85-.02-23.73-.02-35.58-5.75.09-11.52,0-17.27.14.46-11.22-.35-22.49.16-33.72,5.7.16,11.4-.02,17.11-.16-.02-17.84.07-35.67.26-53.51l17.01-.04c.02-7.65-.02-15.31-.09-22.95-.02-4.11-.35-8.61.32-12.66h17.89c-.48-10.37-.14-20.89-.14-31.27-.02-13.74-.28-27.54.08-41.27l-.06-17.62c-5.41-.35-10.94-.15-16.36-.17l-.16-32.31,16.9-.14v-15.78c34.9-.14,69.92-.76,104.8-.02l-.06,5.36c.07,3.62-.11,7.35.17,10.94,16.93-.1,33.92.02,50.84-.47.05-5.32-.05-10.68.21-15.99h0Z"/>
  <path class="st5" d="M670.34,390.8l16.8.08v35.88c1.15-.06,3.36-.42,4.26.34l11.64.05-.05,140.63c-5.56.11-11.12.15-16.68.11-.02,8.74-.56,17.83.12,26.52l.15.37c11.42.35,22.89.2,34.32.22.74,5.59.25,11.72.3,17.38l.26.1,35.39.18c.17,11.17.21,22.35.12,33.51-5.55.6-11.44.22-17.03.22.02,5.21.6,11.3-.24,16.39-11.42-.02-22.83.06-34.23.22,0,5.92.18,11.89-.13,17.8l-34.6.06c0,5.33.58,11.54-.28,16.75l-81.04-.37.02,16.74-33.68.06-.21,16.03-170.44-.28c0-5.13.28-10.46-.22-15.56l-.3-.15c.32-5.41.09-10.95.08-16.38,5.64.09,11.64.5,17.24-.12-.06-5.66-.04-11.34.06-17,2.5.18,14.98.71,16.35-.43l.1-4.19c1.24-1.78.43-9.86.41-12.36-.38-3.53-.06-7.4-.06-10.96l.1-23.39c5.55-.04,11.1-.06,16.65-.04l.34-.1c5.68-.42,11.5-.21,17.21-.23l.06-61.44-35.61.03-.02-16.96-17.13.02-.06-16.31c-5.76.43-11.7.18-17.48.21-.13-5.58-.03-11.18-.04-16.75h-17.65v-54.56c5.55-.26,11.15-.17,16.71-.22v-17.22l18.02-.05.02-17.72,17.43.02-.19-17.53,53.56.04.06,16.99c5.66.28,11.41.16,17.08.21l.08,17.75c6.14-.02,12.27.03,18.41.14l.38,71.99c.03,5.5-.04,11.02.1,16.51,5.44,0,11.02-.23,16.45.14l.24.18c10.36-.46,20.85,0,31.23,0h64.4l.11-.22c-.57-5.46-.23-11.39-.1-16.9l-.05-71.97,17.26-.02v-18.24c5.66.03,11.33-.05,17-.22.06-5.68.05-11.36-.06-17.04,5.67-.06,11.34-.07,17.03-.03-.07-6.3-.05-12.61.06-18.91h-.04Z"/>
  <path class="st1" d="M653.06,574.68c5.66.37,11.26.48,16.93.45.03,6.31-.5,13.09.2,19.34,5.41-.06,10.82-.07,16.23-.05l.15.37c11.42.35,22.89.2,34.32.22.74,5.59.25,11.72.3,17.38l.26.1,35.39.18c.17,11.17.21,22.35.12,33.51-5.55.6-11.44.22-17.03.22.02,5.21.6,11.3-.24,16.39-11.42-.02-22.83.06-34.23.22,0,5.92.18,11.89-.13,17.8l-34.6.06c0,5.33.58,11.54-.28,16.75l-81.04-.37.02,16.74-33.68.06-.21,16.03-170.44-.28c0-5.13.28-10.46-.22-15.56l-.3-.15c.32-5.41.09-10.95.08-16.38,5.64.09,11.64.5,17.24-.12-.06-5.66-.04-11.34.06-17,2.5.18,14.98.71,16.35-.43l.1-4.19c1.24-1.78.43-9.86.41-12.36-.38-3.53-.06-7.4-.06-10.96l.1-23.39c5.55-.04,11.1-.06,16.65-.04l.34-.1c-.79,11.43.02,23.31-.18,34.79,5.79.15,11.61.06,17.41.09v15.31c34.26-.06,68.52.06,102.77.35l-.05-16.35h33.02c.09-5.86.1-11.73.03-17.6,5.28.26,10.56.42,15.85.48l-.1-17.58c5.25.09,10.5.13,15.75.12l-.02-15.86,16.81.02-.02-18.35c5.31.06,10.62.07,15.94.03.39-6.55.04-13.3.03-19.88h-.02Z"/>
  <path class="st4" d="M670.19,594.47c5.41-.06,10.82-.07,16.23-.05l.15.37c11.42.35,22.89.2,34.32.22.74,5.59.25,11.72.3,17.38l.26.1,35.39.18c.17,11.17.21,22.35.12,33.51-5.55.6-11.44.22-17.03.22.02,5.21.6,11.3-.24,16.39-11.42-.02-22.83.06-34.23.22,0,5.92.18,11.89-.13,17.8l-34.6.06c0,5.33.58,11.54-.28,16.75-.74-5.34-.14-11.36-.06-16.75l-33.71.1v-34.88l16.79.12-.06-17.16,16.97.08c-.1-5.43-.04-10.87-.06-16.31,0-6.11.12-12.24-.12-18.35h-.02Z"/>
  <path class="st1" d="M670.19,594.47c5.41-.06,10.82-.07,16.23-.05l.15.37c11.42.35,22.89.2,34.32.22.74,5.59.25,11.72.3,17.38-.31,5.59-.14,11.26-.11,16.87l-16.4-.05.02,17.02-34.38-.13.03-16.99c-.1-5.43-.04-10.87-.06-16.31,0-6.11.12-12.24-.12-18.35h0Z"/>
  <path class="st2" d="M670.19,594.47c5.41-.06,10.82-.07,16.23-.05l.15.37c11.42.35,22.89.2,34.32.22-.49,5.75-.19,11.7-.11,17.47l-4.69.05c-15.13,1.36-30.59-.12-45.79.29,0-6.11.12-12.24-.12-18.35h0Z"/>
  <path class="st4" d="M670.19,594.47c5.41-.06,10.82-.07,16.23-.05l.15.37c-.26,5.87-.14,11.78-.13,17.67,9.8.1,19.9-.54,29.65.07-15.13,1.36-30.59-.12-45.79.29,0-6.11.12-12.24-.12-18.35h0Z"/>
  <path class="st2" d="M704.7,646.33l34.88-.02c-.07,5.44-.37,11.06.11,16.47-11.42-.02-22.83.06-34.23.22,0,5.92.18,11.89-.13,17.8l-34.6.06-.02-17.59c11.46.02,22.91-.03,34.36-.14-.54-5.54-.34-11.23-.37-16.8h0Z"/>
  <path class="st2" d="M721.45,612.49l35.39.18c.17,11.17.21,22.35.12,33.51-5.51-.62-11.48-.19-17.05-.18v-16.52c-6.15-.08-12.32.08-18.48.06.05-5.68-.06-11.36,0-17.04h0Z"/>
  <path class="st2" d="M653.14,594.77c3.94-.91,12.55-.21,17.05-.3.23,6.1.13,12.23.12,18.35.02,5.43-.05,10.87.06,16.31l-16.97-.08.06,17.16-16.79-.12v34.88l33.71-.1c-.09,5.39-.69,11.42.06,16.75l-81.04-.37.02,16.74-33.68.06-.21,16.03-170.44-.28c0-5.13.28-10.46-.22-15.56,4.34-.82,9.72-.31,14.19-.36,11.64-.14,23.28-.2,34.93-.18h121.63c-.03-5.46-.02-10.94.03-16.4h33.43c-.23-5.86-.12-11.73-.11-17.58l15.73.13v-16.61l15.36.02v-17.31c5.5.04,11,.02,16.5-.05.25-5.62.12-11.3.14-16.92l16.43-.06v-34.15h.02Z"/>
  <path class="st2" d="M418.85,629.24c5.55-.04,11.1-.06,16.65-.04l-.04,34.43c-5.55-.05-11.1-.06-16.66-.03-.38-3.53-.06-7.4-.06-10.96l.1-23.39Z"/>
  <path class="st2" d="M687.15,427.09l4.26.02,11.64.05-.05,140.63c-5.56.11-11.12.15-16.68.11-.02,8.74-.56,17.83.12,26.52-5.41-.02-10.82,0-16.23.05-.7-6.24-.17-13.02-.2-19.34l-.03-7.42c5.39-.32,10.95-.04,16.36-.02l-.02-17.24c.02-5.54,0-11.1-.04-16.64-11.1-.36-22.29-.06-33.39,0l-.06-16.99c-5.5-.1-11.02,0-16.51.02l-.07-53.61,16.96-.07.22-.34c-.37-5.65-.07-11.44-.02-17.11l33.75-.02v-18.6h0Z"/>
  <path class="st3" d="M653.41,462.82c5.6-.21,11.21-.24,16.82-.08l-.04,16.4-16.92.05-.07-16.03.22-.34h0Z"/>
  <path class="st2" d="M523.48,534.36c10.36-.46,20.85,0,31.23,0h64.4l-.06,16.25c-5.06-.02-10.13,0-15.19.09l-.08,15.23c-21.27-.46-42.6,0-63.88.04l-.02-15.15c-5.39-.19-10.81-.08-16.21-.06.02-5.46-.04-10.93-.2-16.39h0Z"/>
  <path class="st2" d="M670.34,390.8l16.8.08v35.88c-5.62.11-11.26.02-16.87,0l.02-17.06c-.07-6.3-.05-12.61.06-18.91h0Z"/>
  <path class="st1" d="M686.3,550.46l.02,17.24c-5.42-.02-10.97-.3-16.36.02-.2-5.74-.04-11.53-.04-17.27h16.39,0Z"/>
  <path class="st2" d="M619.11,517.24c5.62.08,11.25.09,16.87.03l-.06,16.43c-5.5.23-11.26-.14-16.7.43-.57-5.46-.23-11.39-.1-16.9h0Z"/>
  <path class="st2" d="M470.28,445.47l.18.14c.97,2.8.28,13.63.27,17.28h18.35c.06,17.96.04,35.93-.07,53.9l-17.49.03-.11,16.87-52.01.09c-.38.02-.76-.13-1.13-.22-1.14-2.98-.38-12.93-.34-16.57-5.7-.06-11.39-.03-17.09.1-.33-6.4-.11-12.92-.12-19.33l-.02-34.86h17.27l.02-17.05c17.41-.47,34.87-.06,52.28-.36h0Z"/>
  <path class="st3" d="M448.89,463.05l3.85.02-.02,17.37-13.78.02-4.22-.03v-17.35l14.19-.02h0Z"/>
  <path class="st4" d="M310.68,289.41c34.9-.14,69.92-.76,104.8-.02l-.06,5.36c.07,3.62-.11,7.35.17,10.94l-.33.4c-.3,5.26-.18,10.54-.16,15.8l-33.59.18.02,15.91c15.19-.09,30.63-.84,45.77-.22-3.44.56-7.14.3-10.62.29l.03,17.8-17.45.09-.09,17.9c-5.86,0-11.78-.14-17.64.06v17.63l-17.37.11-.04,18.49c-6.02.05-12.05,0-18.06.19-.2,11.79.11,23.59-.05,35.39-5.9.02-11.81-.02-17.71.1l-.03,17.51c-5.78,0-11.56.07-17.33-.03l-.04,36.73h-18.19c0,2.46.13,5.02-.1,7.46-.66-4.9-.3-10.26-.29-15.2.07-9.56.07-19.12-.02-28.68.02-7.65-.02-15.31-.09-22.95-.02-4.11-.35-8.61.32-12.66h17.89c-.48-10.37-.14-20.89-.14-31.27-.02-13.74-.28-27.54.08-41.27l-.06-17.62c-5.41-.35-10.94-.15-16.36-.17l-.16-32.31,16.9-.14v-15.79Z"/>
  <path class="st4" d="M310.68,289.41c34.9-.14,69.92-.76,104.8-.02l-.06,5.36c.07,3.62-.11,7.35.17,10.94l-.33.4c-.3,5.26-.18,10.54-.16,15.8l-33.59.18.02,15.91c-5.89.05-11.78.06-17.67.02l.02,17.82-18.42.05c-.03,6.06-.18,12.15.08,18.21l-17.67.03v-36.25c-5.8-.12-11.6-.1-17.39.05.2-10.9.26-21.8.21-32.7v-15.78h0Z"/>
  <path class="st1" d="M327.5,305.53c9.84.3,85.06-.63,87.77.57-.3,5.26-.18,10.54-.16,15.8l-33.59.18.02,15.91c-5.89.05-11.78.06-17.67.02l-18.31.02c-.09-5.21,0-10.43.02-15.64l-17.87-.06c-.18-5.58-.15-11.19-.22-16.79h0Z"/>
  <path class="st2" d="M310.68,289.41c34.9-.14,69.92-.76,104.8-.02l-.06,5.36c-.4,3.49-.27,7.03-.26,10.54l-104.49-.1v-15.78h0Z"/>
  <path class="st2" d="M293.78,305.33l16.9-.14c.06,10.9,0,21.8-.21,32.7,5.79-.15,11.59-.17,17.39-.05v36.25l17.68-.03c.49,5.7.18,11.61.02,17.32l-17.48.18c-.4,12.1-.21,24.26-.22,36.36l-17.09-.12c-.23-16.76-.04-33.55-.06-50.31,0-6.96.76-15.33-.34-22.07l-.06-17.62c-5.41-.35-10.94-.15-16.36-.17l-.16-32.31h0Z"/>
  <path class="st2" d="M363.86,337.98c5.89.04,11.78.04,17.67-.02v18.04h-17.64s0,18.07,0,18.07l-18.34-.02c-.26-6.06-.11-12.14-.08-18.21l18.42-.05-.02-17.82h0Z"/>
  <path class="st2" d="M292.54,427.97h17.89c1.13,2.72.43,29.98.43,35.36l-18.14.06c.02-11.74.47-23.71-.18-35.42h0Z"/>
  <path class="st2" d="M466.65,289.24l63.53-.06c11.19,0,22.43-.22,33.63.02,0,5.49.09,10.98,0,16.47l37.66.02.07,15.63h17.15c-.03,4.94-.13,9.89.14,14.83l-.27,2.05c-3.58,1.07-12.97.27-17.06.25v-16.75c-12.7.08-25.41.09-38.11.03-.03-5.37-.13-10.74.06-16.11l-77.81-.29v16.43l-52.78-.06-.06,15.91-5.5.14c-15.15-.61-30.59.14-45.77.22l-.02-15.91,33.59-.18c-.02-5.26-.14-10.54.16-15.8l.33-.4c16.93-.1,33.92.02,50.84-.47.05-5.32-.05-10.68.21-15.99v.02Z"/>
  <path class="st2" d="M275.29,463.62l17.01-.04c.08,9.56.09,19.12.02,28.68,0,4.94-.37,10.3.29,15.2l.06,9.91c-5.86-.02-11.73.05-17.59-.07l-.07,17.12.02,16.44c-5.75.09-11.52,0-17.27.14.46-11.22-.35-22.49.16-33.72,5.7.16,11.4-.02,17.11-.16-.02-17.84.07-35.67.26-53.51h0Z"/>
  <path class="st4" d="M275.09,517.31c5.86.13,11.73.06,17.59.07l.05,17.08-17.71-.03.07-17.12h0Z"/>
  <path class="st2" d="M347.77,612.11l17.89-.03c.02,5.56.14,11.15-.15,16.71l-17.71-.03c-.04-5.54-.05-11.1-.02-16.64h0Z"/>
  <path class="st2" d="M653.18,355.71c1.16,2.88.39,13.54.36,17.22-5.74.07-11.49.12-17.23.13v-17.08c5.57.08,11.34.34,16.87-.26h0Z"/>
  <path class="st2" d="M653.54,372.93l16.54-.03c-.63,5.73-.21,11.9-.19,17.68l-16.38.14c-.1-5.93-.08-11.86.04-17.79h0Z"/>
  <path class="st2" d="M619.09,338.42l16.82.03c-.02,5.48-.22,11.03.15,16.51l-.31.38c-3.31.95-12.75.16-16.71.1-.07-5.63-.35-11.42.06-17.03h-.02Z"/>
  <path class="st2" d="M402.09,663.74c5.42-.07,10.85-.1,16.27-.1,0,4.04-.26,8.3.03,12.32l-.1,4.19c-1.38,1.14-13.84.62-16.35.43.38-5.55.13-11.27.14-16.85h0Z"/>
  <path class="st2" d="M506.69,517.53c5.49-.15,10.98-.21,16.47-.16.11,5.48.63,11.36.09,16.81-5.42-.37-11.01-.13-16.45-.14-.14-5.5-.07-11.02-.1-16.51Z"/>
  <path class="st2" d="M562.45,500.08l21.43-.02v16.83l-21.32.02c-.14-5.61-.17-11.21-.11-16.82h0Z"/>
  <path class="st2" d="M365.8,594.8h17.61c.03,5.71-.02,11.42-.18,17.11-5.78.33-11.65.12-17.44.12v-17.23h0Z"/>
  <path class="st4" d="M189.84,430.84c5.63,0,11.26-.04,16.9.23-.06,5.18-.02,10.34.1,15.52,1.28,1.14,4.6.9,6.41,1.01h11.79l-.11,16.41,15.58-.21c0,5.65-.62,12.4.34,17.91l.21.29,16.57.07c1.04,10.38.3,24.53.3,35.21-.51,11.22.3,22.49-.16,33.72,5.75-.14,11.52-.05,17.27-.14,0,11.85-.22,23.73.02,35.57h17.72v8.78s21.91-.05,21.91-.05c-.66,5.69-.8,11.4-1.18,17.11,11.38-.3,22.89-.47,34.27-.17-.02,5.54-.02,11.1.02,16.64l17.71.03c-.29,11.75-.1,23.54-.07,35.3,12.1,0,24.62.62,36.66-.34-.02,5.57.25,11.3-.14,16.85-.1,5.66-.11,11.34-.06,17-5.6.62-11.6.21-17.24.12,0,5.43.24,10.97-.08,16.38-12.1-.33-24.34-.14-36.43.03l-.08.26c-.39,5.11-.2,10.36-.21,15.49-17.84.62-35.9-.06-53.76-.18l-.1-19.47c-.03-3.88-.42-8.05.18-11.86l.81-.35c5.4-.68,11.42-.24,16.9-.34l.02-34.39c-6.1-.25-12.28-.04-18.39-.11.02-5.49.36-11.22-.17-16.68-.74-.6-1.77-.54-2.7-.68-5.01-.23-10.1-.1-15.12-.15-.21-5.5-.13-11.02-.12-16.53-5.84-.35-11.71-.23-17.56-.22l.02-16.79h-17.15c.02,5.19.66,11.43-.19,16.51-5.62.53-11.4.31-17.05.31l-.02,16.51c-5.09.72-11.67.65-16.81.16-.12,5.74-.02,11.5-.02,17.25-10.96.18-21.93.19-32.89.03-.64-16.77-.2-33.74-.17-50.53,4.89-1.01,11.28-.34,16.31-.34l.12-24.47c4.63-1.1,12.02-.31,16.97-.29.08-6.12.06-12.24-.04-18.36-4.39.06-8.78.02-13.17-.1h-3.6c-1.23-7.34,1.23-29.3-.68-34.27l-1.11-.32c-4.91-.18-9.87-.09-14.79-.11-.24-10.43,0-20.93,0-31.36l.09-55.36,15.89-.18.18-.22c.31-5.34.1-10.8.12-16.15l-.02.02Z"/>
  <path class="st1" d="M223.62,464.53c.97,1.07.42,14.78.46,17.29,5.58-.03,11.19.06,16.76-.1l.21.29,16.57.07c1.04,10.38.3,24.53.3,35.21-.51,11.22.3,22.49-.16,33.72-.9,5.65-.32,12.13-.26,17.86l-33.63.04.05-51.27-17.15.04c-.32-17.58.07-35.19-.02-52.77,5.53,0,11.41.36,16.88-.38h0Z"/>
  <path class="st2" d="M241.05,482l16.57.07c-.41,4.17-.18,8.5-.17,12.69l.12,22.16-16.51-.03v-34.89h0Z"/>
  <path class="st2" d="M330.3,628.6l17.23.02-.14,51.31-17.9.1-.02,17.63h-17.6l.02-34.39,18.31.13.1-34.8h0Z"/>
  <path class="st2" d="M173.65,447.38l15.89-.18.21,65.4c0,4.3.67,17.72-.26,21.05-.38.21-.73.44-1.14.56-4.91-.18-9.87-.09-14.79-.11-.24-10.43,0-20.93,0-31.36l.09-55.36h0Z"/>
  <path class="st2" d="M294.09,729.69l-.1-19.47c-.03-3.88-.42-8.05.18-11.86l.81-.35c5.59.36,11.28.18,16.89.1,0,5.44-.06,10.9.04,16.34,12.04,0,24.11.12,36.15-.06-.39,5.11-.2,10.36-.21,15.49-17.84.62-35.9-.06-53.76-.18h0Z"/>
  <path class="st2" d="M173.56,612.36c5.27.36,10.69.18,15.97.02l-.05,32.94c4.35-.06,13.22-.85,17.15.28-.12,5.74-.02,11.5-.02,17.25-10.96.18-21.93.19-32.89.03-.64-16.77-.2-33.74-.17-50.53h0Z"/>
  <path class="st2" d="M347.96,697.55c12.18-.2,24.51-.11,36.69.17,0,5.43.24,10.97-.08,16.38-12.1-.33-24.34-.14-36.43.03-.72-5.23-.19-11.26-.18-16.59h0Z"/>
  <path class="st2" d="M206.85,447.6c2.15.14,4.24.1,6.39,0h11.79l-.11,16.41,15.58-.21c0,5.65-.62,12.4.34,17.91-5.58.17-11.18.07-16.76.1-.04-2.51.5-16.22-.46-17.29-5.57-.28-11.23-.02-16.81.03l.04-16.96h0Z"/>
  <path class="st2" d="M257.84,612.12c6.01-.05,12.02-.06,18.03-.04,0,5.7.16,11.46-.18,17.14l17.39.02c0,5.21.55,11.13-.21,16.24l-2.25.32c-5.01-.23-10.1-.1-15.12-.15-.21-5.5-.13-11.02-.12-16.53-5.84-.35-11.71-.23-17.56-.22l.02-16.79v.02Z"/>
  <path class="st2" d="M223.23,612.05l17.11-.04c-.06,5.46-.39,11.18.17,16.62-5.62.53-11.4.31-17.05.31l-.02,16.51c-5.47-.54-11.27-.12-16.78-.06l.02-16.38,16.67-.12c-.3-5.6-.14-11.24-.11-16.84h0Z"/>
  <path class="st2" d="M190.29,534.47h16.36l.03,34.12c-4.26.02-8.69-.21-12.93.22h-3.6c.89-11.24.18-23.03.14-34.33h0Z"/>
  <path class="st2" d="M189.99,587.55c5.61.34,11.3.13,16.92.1-.03,8.13.1,16.3-.1,24.42-5.62,0-11.34.24-16.94-.05l.12-24.47Z"/>
  <path class="st2" d="M384.71,680.45c5.73-.07,11.53-.22,17.24.14-.1,5.66-.11,11.34-.06,17-5.49-.7-11.62-.23-17.19-.25v-16.9h0Z"/>
  <path class="st2" d="M189.84,430.84c5.63,0,11.26-.04,16.9.23-.06,5.18-.02,10.34.1,15.52-1.46,1.42-11.87.7-14.35.64-.92-.02-1.86-.06-2.77-.24.31-5.34.1-10.8.12-16.15h0Z"/>
  <path class="st2" d="M240.82,586.48l17.06-.02-.03,25.43c-5.68-.36-11.45-.15-17.15-.12l.12-25.29h0Z"/>
  <path class="st2" d="M293.69,646.22c5.93-.14,11.88-.03,17.82-.04l.06,16.63-17.66-.02c0-5.52.1-11.06-.22-16.57h0Z"/>
  <path class="st5" d="M758.97,321.82l16.78.11c.12,5.67.18,11.34.15,17.02l17.02-.07c.04,5.44.48,11.32-.08,16.71,5.56.13,11.12.18,16.69.14l-.03,49.68c-5.6.16-11.21.18-16.81.07v15.92l-16.78.18-.02,15.42c-5.43.07-10.87.09-16.31.05l-.05-16.07c-5.32-.02-10.64,0-15.96.07l-.05-15.62c-5.42-.14-10.85-.09-16.27-.12-.02-7.62-.9-45.37.45-49.8,4.9-.94,11.22-.38,16.23-.22l.1-16.23,15.06.05-.13-17.28h0Z"/>
  <path class="st1" d="M792.83,355.59c5.56.13,11.12.18,16.69.14l-.03,49.68c-5.6.16-11.21.18-16.81.07v15.92l-16.78.18-.02,15.42c-5.43.07-10.87.09-16.31.05l-.05-16.07c-5.32-.02-10.64,0-15.96.07l-.05-15.62c16.39.15,32.78.13,49.16-.08,0-16.47-.71-33.33.14-49.76h0Z"/>
  <path class="st1" d="M758.97,321.82l16.78.11c.12,5.67.18,11.34.15,17.02l17.02-.07c.04,5.44.48,11.32-.08,16.71-5.58-.42-11.33-.08-16.92,0-6.46.1-12.94,0-19.4,0-4.07-.49-8.46-.18-12.58-.3l.1-16.23,15.06.05-.13-17.28h0Z"/>
  <path class="st1" d="M727.71,355.51c5.3.27,10.66.09,15.97.03-.51,16.61.09,33.27-.15,49.88-5.42-.14-10.85-.09-16.27-.12-.02-7.62-.9-45.37.45-49.8h0Z"/>
  <path class="st5" d="M756.51,355.59c6.46,0,12.94.1,19.4,0v16.92c-5.3.1-10.62.28-15.91.04l-.05,16.72h-15.98l.03-33.53c4.17.02,8.34.06,12.5-.15h0Z"/>
  <path class="st1" d="M819.95,304.49c5.54.12,11.07.1,16.61-.04-.31,5.55-.22,11.14-.22,16.7-5.35.38-10.86.12-16.24.11-.14-5.58-.1-11.18-.15-16.77h0Z"/>
  <path class="st1" d="M820.07,270.56l16.39-.1.11,16.59-16.43.08c.19-5.53.17-11.05-.07-16.58h0Z"/>
  <path class="st1" d="M803.96,287.23h15.94l-.02,16.91c-5.26-.12-10.54-.06-15.81-.08.03-5.61,0-11.22-.11-16.83h0Z"/>
  <path class="st1" d="M836.7,287.25h15.87c.06,5.53.13,11.12-.36,16.63-4.74.83-10.64.22-15.52.26v-16.87h0Z"/>
</svg>