<?xml version="1.0" encoding="UTF-8"?>
<svg id="Layer_1" xmlns="http://www.w3.org/2000/svg" version="1.1" viewBox="0 0 1024 1024">
  <!-- Generator: Adobe Illustrator 29.4.0, SVG Export Plug-In . SVG Version: 2.1.0 Build 152)  -->
  <defs>
    <style>
      .st0 {
        fill: #3a6579;
        stroke: #799aa9;
        stroke-miterlimit: 10;
        stroke-width: 16px;
      }

      .st1 {
        fill: #78d6e6;
      }

      .st2 {
        fill: #542810;
      }

      .st3 {
        fill: #697b87;
      }

      .st4 {
        fill: #847c6a;
      }

      .st5 {
        fill: #0f1926;
      }

      .st6 {
        fill: #834d23;
      }

      .st7 {
        fill: #fefefe;
      }

      .st8 {
        fill: #b06d38;
      }

      .st9 {
        fill: #c6c5c5;
      }

      .st10 {
        fill: #838179;
      }

      .st11 {
        fill: #495a67;
      }

      .st12 {
        fill: #9da0a2;
      }
    </style>
  </defs>
  <circle class="st0" cx="513" cy="511" r="486"/>
  <g>
    <path class="st9" d="M439.63,170.37l123.93.22v19.08c5.9-.01,12.48-.6,18.3.2.16,6.11.19,12.21.11,18.32,6,.03,12,0,18.01-.11.04,12.24-.15,24.51.13,36.74,5.94.01,11.88,0,17.82-.06l-.05,36.84c18.64.37,37.31.05,55.95-.04.54,6.21.16,12.66.17,18.91l36.36.13c-.13,11.75-.16,23.51-.1,35.26-12.06-.01-24.23.34-36.27-.16v18.69s17.86.05,17.86.05c.01,5.86-.2,11.82.11,17.66l.17.19c6.07.05,12.16,0,18.23.2.66,5.94.19,12.39.19,18.38,0,5.98.43,12.37-.15,18.3l18.18.02.32,125.51c5.79.09,11.58.08,17.37-.02.84.72.87,1.17.95,2.26.37,4.97.11,10.34-.19,15.31,5.91-.01,11.84.07,17.75-.07l-.06,36.66-6.26.1-.03.21c2.15.22,4.25.11,6.4,0v26.05c0,3.74-.64,8.91.3,12.47l-.25.5-.36-.44c-4.36-.92-12.64-.2-17.42-.18l-18.44.1.02,18.07c-4.51-.02-14.67-.78-18.66.3l-.18-.2c-11.76-.52-23.71-.09-35.48-.09.09,12.4.1,24.8.03,37.2h-16.9s-.14,17.81-.14,17.81c-5.72.02-11.49-.12-17.2.12l-.09,17.77-18.31.03c-.5,6.01-.27,12.15-.26,18.18-12.06.06-24.16-.06-36.21.36-.08,5.91-.1,11.81-.08,17.72-17.91-.1-35.89.19-53.79-.17.09,5.82.1,11.64.05,17.46h-26.41c-5.06,0-10.21-.19-15.25.16v18.14c-19.73-.3-39.46-.4-59.18-.3-10.24,0-20.6-.33-30.82.09l.03,17.73-11-.03c-2.26-.24-4.57-.11-6.84-.08-.05-11.86.05-23.71.28-35.57l18.17-.1-.04-17.78,19.34-.07.12-35.26,18.02.08c-.32-4.05-.03-8.35-.02-12.42l.06-23.84-37.6-.13c-.03-5.83-.2-11.7.1-17.53l-.21-.14c-6.09.09-12.2-.03-18.29-.05l-.3-36.77-18.08.05c-.19-19.12-.4-38.34.08-57.45-2.22,1.05-14.93.35-18.06.34l-.07-108.18c-.32-11.9-.03-23.89-.03-35.8-6.01.12-12.18.44-18.17-.04,5.69-.93,11.84.66,17.48-.44.62-.97.56-2.57.66-3.71l-.08-13.87c-12.09-.53-24.35-.15-36.45-.06-.06-12.16-.28-24.35-.05-36.5h18.08s.25-18.42.25-18.42c5.97-.14,11.96-.08,17.93-.1l.05-36.36h18c.78-30.72.22-61.59.11-92.33,5.04,0,10.55-.44,15.53.27.75-.08,1.47-.22,2.21-.35,1.21-1.64.45-14.94.41-17.85h18.69s.02-17.87.02-17.87l39.14.02c.05-1.27.18-2.53.28-3.8l.07-15.5Z"/>
    <path class="st8" d="M439.63,170.37l123.93.22v19.08c5.9-.01,12.48-.6,18.3.2.16,6.11.19,12.21.11,18.32,6,.03,12,0,18.01-.11.04,12.24-.15,24.51.13,36.74,5.94.01,11.88,0,17.82-.06l-.05,36.84c18.64.37,37.31.05,55.95-.04.54,6.21.16,12.66.17,18.91l36.36.13c-.13,11.75-.16,23.51-.1,35.26-12.06-.01-24.23.34-36.27-.16-5.55-.9-12.18-.23-17.85-.2-18.88.03-37.79-.19-56.66.13,0,6.35.07,12.7,0,19.05-12.9-.23-25.8.03-38.71,0l-72.02-.34c.02,6.05.17,12.12,0,18.17-16.73-.09-33.55-.5-50.27-.13l-.14,18.68c-18.73-.19-37.46.18-56.19-.07.1,6.11.22,12.25-.02,18.36-12.2-.03-24.57.38-36.76-.12-12.09-.53-24.35-.15-36.45-.06-.06-12.16-.28-24.35-.05-36.5h18.08s.25-18.42.25-18.42c5.97-.14,11.96-.08,17.93-.1l.05-36.36h18c.78-30.72.22-61.59.11-92.33,5.04,0,10.55-.44,15.53.27.75-.08,1.47-.22,2.21-.35,1.21-1.64.45-14.94.41-17.85h18.69s.02-17.87.02-17.87l39.14.02c.05-1.27.18-2.53.28-3.8l.07-15.5Z"/>
    <path class="st2" d="M400.14,189.65l39.14.02v18.21c-6,0-12.04.15-18.03-.09-.38,9.99-.13,20.05-.07,30.04l.19,43.38-20.06.04v18.6s0,35.66,0,35.66c12.41,0,24.84-.19,37.25,0l.02,18.67-.11,18.2-.14,18.68c-18.73-.19-37.46.18-56.19-.07.1,6.11.22,12.25-.02,18.36-12.2-.03-24.57.38-36.76-.12-12.09-.53-24.35-.15-36.45-.06-.06-12.16-.28-24.35-.05-36.5h18.08s.25-18.42.25-18.42c5.97-.14,11.96-.08,17.93-.1l.05-36.36h18c.78-30.72.22-61.59.11-92.33,5.04,0,10.55-.44,15.53.27.75-.08,1.47-.22,2.21-.35,1.21-1.64.45-14.94.41-17.85h18.69s.02-17.87.02-17.87Z"/>
    <path class="st6" d="M400.55,207.56c6.88.32,13.8-.07,20.69.24-.38,9.99-.13,20.05-.07,30.04l.19,43.38-20.06.04v18.6c-6.34-.51-12.97-.13-19.33-.11l-.02-48.69c0-7.98.5-16.35-.25-24.28l.31-.43c2.61-.9,14.88-.29,18.49-.28l.04-18.51Z"/>
    <path class="st8" d="M438.57,354.17l-.11,18.2c-6.44.64-13.26.24-19.74.25l-36.63.04-.03-18.5c18.82-.3,37.69-.01,56.51,0Z"/>
    <path class="st8" d="M326.93,372.68l36.52.03c.03,6.07,0,12.14-.08,18.2l-36.48-.07.03-18.16Z"/>
    <path class="st6" d="M363.46,372.71l18.59-.03-.02,18.23h-18.65c.08-6.07.11-12.14.08-18.21Z"/>
    <path class="st8" d="M673.82,281.56c.54,6.21.16,12.66.17,18.91l36.36.13c-.13,11.75-.16,23.51-.1,35.26-12.06-.01-24.23.34-36.27-.16-5.55-.9-12.18-.23-17.85-.2-18.88.03-37.79-.19-56.66.13,0,6.35.07,12.7,0,19.05-12.9-.23-25.8.03-38.71,0l-72.02-.34c.02,6.05.17,12.12,0,18.17-16.73-.09-33.55-.5-50.27-.13l.11-18.2-.02-18.67c10.9.07,21.8.07,32.7,0,5.62-.01,11.53-.37,17.12.13,1.21-3.25.41-13.93.37-18-.22-5.93-.04-11.93-.04-17.88,25.05,0,50.12-.27,75.16.06,4.42.36,8.98.18,13.41.19l22.82.04,73.61.12c-.14-6.17-.33-12.45.1-18.61Z"/>
    <path class="st2" d="M673.99,300.47l36.36.13c-.13,11.75-.16,23.51-.1,35.26-12.06-.01-24.23.34-36.27-.16-5.55-.9-12.18-.23-17.85-.2-18.88.03-37.79-.19-56.66.13,0,6.35.07,12.7,0,19.05-12.9-.23-25.8.03-38.71,0l-72.02-.34c.02,6.05.17,12.12,0,18.17-16.73-.09-33.55-.5-50.27-.13l.11-18.2,49.9.02c-.15-6.13,0-12.3.02-18.43,5.41,1.19,21.42.17,28.18.14h65.43s0-18.29,0-18.29l91.74.12c-.06-5.76-.01-11.51.14-17.26Z"/>
    <path class="st2" d="M488.71,299.76c25.05,0,50.12-.27,75.16.06-.25,6.04-.13,12.09-.11,18.14l-49.62-.12c-8.38-.03-17.05.37-25.39-.2-.22-5.93-.04-11.93-.04-17.88Z"/>
    <path class="st6" d="M531.53,262.59l49-.03c6.43-.04,12.87-.34,19.3-.29l-.06,19.23c-11.85.05-23.73-.07-35.58.17,0,5.9.47,12.32-.32,18.16-25.04-.33-50.12-.06-75.16-.06,0,5.94-.18,11.94.04,17.88.04,4.07.85,14.76-.37,18-5.59-.5-11.5-.15-17.12-.13-10.9.07-21.8.07-32.7,0-12.4-.19-24.84,0-37.25,0v-35.66s0-18.6,0-18.6l20.06-.04,17.14-.02c30.96.61,62.05.2,93.02.08v-18.67Z"/>
    <path class="st2" d="M438.56,317.65h50.19c.04,4.06.85,14.74-.37,17.99-5.59-.5-11.5-.15-17.12-.13-10.9.07-21.8.07-32.7,0-.13-5.94,0-11.91,0-17.86Z"/>
    <path class="st2" d="M421.37,281.21l17.14-.02v18.67s-25.63.19-25.63.19c-3.73,0-7.9.38-11.57-.2v-18.6s20.06-.04,20.06-.04Z"/>
    <path class="st2" d="M563.88,190c5.94.03,12.05.35,17.97-.13.16,6.11.19,12.21.11,18.32,6,.03,12,0,18.01-.11.04,12.24-.15,24.51.13,36.74,5.94.01,11.88,0,17.82-.06l-.05,36.84c18.64.37,37.31.05,55.95-.04-.42,6.16-.24,12.44-.1,18.61l-73.61-.12-22.82-.04c-4.44,0-9,.17-13.41-.19.79-5.84.32-12.26.32-18.16,11.85-.24,23.73-.12,35.58-.17l.06-19.23c-6.43-.04-12.87.26-19.3.29l-49,.03v18.67c-30.98.13-62.06.53-93.03-.08l.02-18.8c30.92.38,61.94.3,92.86-.03l.09-17.76,49.88.12c.02-12.14-.28-24.39.31-36.51l-17.77.03-.02-18.26Z"/>
    <path class="st2" d="M439.63,170.37l123.93.22v19.08c-11.94.5-24.03.15-35.99.14l-54.85.1-23.41-.03c-2.37,0-5.77.5-7.99.07-.56-.11-.65-.19-1.09-.44-.79-1.2-.63-2.24-.68-3.64l.07-15.5Z"/>
    <path class="st3" d="M656.13,335.5c5.68-.03,12.31-.7,17.85.2v18.69s17.86.05,17.86.05c.01,5.86-.2,11.82.11,17.66l.17.19c-.12,10.75.74,22.53-.21,33.14l.04,3.7c-17.87,0-35.76-.15-53.62.07l.02,17.81-17.61-.03v90.08c5.97,0,12.04.24,17.99-.08l.17.08c-1.05,5.04-.28,12.26-.23,17.49-13.47-.54-27.13-.07-40.62-.07-16.83,0-33.71-.33-50.53.05-5.58.07-11.83.61-17.32-.25l-.39-.37c-.84-5.28-.18-11.56-.16-16.95l17.82.04-.32-90.02-17.77-.03c.04-5.93.03-11.85-.04-17.78l-74.45.07-.04,17.71c4.02-.03,8.05-.11,12.07.11-4,.21-8.01.19-12.01.22,0,5.32.64,11.62-.25,16.83-.43-5.52-.3-11.33,0-16.86-11.71-.08-23.41-.06-35.12.05l.1,89.76,18.1.03.02,35.37c0,6.24.29,12.6-.06,18.82h17.27s.23,58.97.23,58.97c.02,11.58-.5,23.38.09,34.92-1.61,1.43-14.23.66-17.31.65.01,5.71.11,11.43-.04,17.13l-37.6-.13c-.03-5.83-.2-11.7.1-17.53l-.21-.14c-6.09.09-12.2-.03-18.29-.05l-.3-36.77-18.08.05c-.19-19.12-.4-38.34.08-57.45-2.22,1.05-14.93.35-18.06.34l-.07-108.18c-.32-11.9-.03-23.89-.03-35.8-6.01.12-12.18.44-18.17-.04,5.69-.93,11.84.66,17.48-.44.62-.97.56-2.57.66-3.71l-.08-13.87c12.19.5,24.55.09,36.76.12.25-6.11.12-12.25.02-18.36,18.72.25,37.46-.12,56.19.07l.14-18.68c16.72-.37,33.54.04,50.27.13.17-6.04.02-12.12,0-18.17l72.02.34c12.9.03,25.8-.23,38.71,0,.07-6.35,0-12.7,0-19.05,18.87-.32,37.79-.1,56.66-.13Z"/>
    <path class="st11" d="M656.13,335.5c5.68-.03,12.31-.7,17.85.2v18.69s17.86.05,17.86.05c.01,5.86-.2,11.82.11,17.66l.17.19c-.12,10.75.74,22.53-.21,33.14-.27-4.82-.14-9.68-.12-14.5l-35.29-.19-.02-18.45-119.52.35c-16.07,0-32.17.22-48.23-.1v18.72c-16.78,0-33.6.21-50.38-.06-.1,5.97-.1,11.94-.01,17.91-12.6.02-25.22-.13-37.81.09-.05,5.95-.05,11.91-.01,17.86l-18.54.02-.02,17.72-18.02.1c-.19,5.96-.09,11.93-.05,17.9-6.06.07-12.36-.34-18.38.29-.32-11.9-.03-23.89-.03-35.8-6.01.12-12.18.44-18.17-.04,5.69-.93,11.84.66,17.48-.44.62-.97.56-2.57.66-3.71l-.08-13.87c12.19.5,24.55.09,36.76.12.25-6.11.12-12.25.02-18.36,18.72.25,37.46-.12,56.19.07l.14-18.68c16.72-.37,33.54.04,50.27.13.17-6.04.02-12.12,0-18.17l72.02.34c12.9.03,25.8-.23,38.71,0,.07-6.35,0-12.7,0-19.05,18.87-.32,37.79-.1,56.66-.13Z"/>
    <path class="st5" d="M656.13,335.5c5.68-.03,12.31-.7,17.85.2v18.69s17.86.05,17.86.05c.01,5.86-.2,11.82.11,17.66-3.69,1.41-13.83.59-18.32.56-.08-5.97-.04-11.95.11-17.92-5.86.13-11.74.07-17.61.09v-19.33Z"/>
    <path class="st5" d="M382.12,409.35l-.14,17.81c-5.07,0-33.75.58-36.21-.25l-.33-3.81-.08-13.87c12.19.5,24.55.09,36.76.12Z"/>
    <path class="st5" d="M419.61,552.6l17.8-.08c-.02,6.18-.35,12.61.27,18.76h17.27s.23,58.97.23,58.97c.02,11.58-.5,23.38.09,34.92-1.61,1.43-14.23.66-17.31.65.01,5.71.11,11.43-.04,17.13l-37.6-.13c-.03-5.83-.2-11.7.1-17.53,4.32.42,8.87.16,13.22.16h23.79s-.07-76.82-.07-76.82c-5.89-.3-11.89-.08-17.79-.09l.05-35.96Z"/>
    <path class="st5" d="M363.7,552.6c5.97-.02,11.97.06,17.93-.14v75.87s-18.08.05-18.08.05c-.19-19.12-.4-38.34.08-57.45.06-6.11.09-12.22.07-18.33Z"/>
    <path class="st5" d="M381.63,628.34l18.55-.07c0,12.27-.36,24.64.04,36.9-6.09.09-12.2-.03-18.29-.05l-.3-36.77Z"/>
    <path class="st5" d="M529.66,516.97l17.82.04v17.32c-5.68-.19-11.61-.51-17.26-.03l-.39-.37c-.84-5.28-.18-11.56-.16-16.95Z"/>
    <path class="st5" d="M692.13,372.29c6.07.05,12.16,0,18.23.2.66,5.94.19,12.39.19,18.38,0,5.98.43,12.37-.15,18.3l18.18.02.32,125.51c5.79.09,11.58.08,17.37-.02.84.72.87,1.17.95,2.26.37,4.97.11,10.34-.19,15.31,5.91-.01,11.84.07,17.75-.07l-.06,36.66-6.26.1-.03.21c2.15.22,4.25.11,6.4,0v26.05c0,3.74-.64,8.91.3,12.47l-.25.5-.36-.44c-4.36-.92-12.64-.2-17.42-.18l-18.44.1.02,18.07c-4.51-.02-14.67-.78-18.66.3l-.18-.2c-11.76-.52-23.71-.09-35.48-.09-.41-4.72-.14-9.64-.11-14.37.08-7.62.08-15.25.01-22.87,5.95.02,11.89,0,17.84-.08-.04-8.7.18-17.41.02-26.11.02-3.76.08-7.51.17-11.27.13-6.11-.09-12.2.25-18.3l17.66.03c.13-12.07.08-24.15-.12-36.22-11.92-.3-23.89-.07-35.82-.07l.05-16.92c-5.82-.12-11.67,0-17.49,0v17.49c-5.98-.07-11.96-.07-17.93,0l-.17-.08c-5.95.32-12.03.08-17.99.08v-90.08l17.61.03-.02-17.81c17.87-.22,35.75-.06,53.62-.07l-.04-3.7c.96-10.61.09-22.39.21-33.14Z"/>
    <path class="st9" d="M692.13,372.29c6.07.05,12.16,0,18.23.2.66,5.94.19,12.39.19,18.38,0,5.98.43,12.37-.15,18.3-.57,4.21-.3,8.72-.3,12.97v22.72s-18.19-.04-18.19-.04l.03-17.8-35.34.06-.06,17.76-17.85.02v36.89s17.89-.03,17.89-.03l.03,17.46h.16s.08.38.08.38v17.49c-5.98-.07-11.96-.07-17.93,0l-.17-.08c-5.95.32-12.03.08-17.99.08v-90.08l17.61.03-.02-17.81c17.87-.22,35.75-.06,53.62-.07l-.04-3.7c.96-10.61.09-22.39.21-33.14Z"/>
    <path class="st5" d="M692.13,372.29c6.07.05,12.16,0,18.23.2-.51,4.65-.28,9.5-.27,14.18l.07,22.49c-6.06,0-12.15.12-18.2-.02l-.04-3.7c.96-10.61.09-22.39.21-33.14Z"/>
    <path class="st12" d="M656.61,499.19h.16s.08.38.08.38v17.49c-5.98-.07-11.96-.07-17.93,0l-.17-.08c.91-5.39.23-11.95.2-17.46,4.7.07,13.29.88,17.67-.34Z"/>
    <path class="st2" d="M746.82,588.97h11.65s-.03.2-.03.2c2.15.22,4.25.11,6.4,0v26.05c0,3.74-.64,8.91.3,12.47l-.25.5-.36-.44c-4.36-.92-12.64-.2-17.42-.18l-18.44.1-.02-38.73c6.04.02,12.13.21,18.17.04Z"/>
    <path class="st10" d="M746.92,589.06c3.84-.01,7.68-.08,11.51.11,2.15.22,4.25.11,6.4,0v26.05c0,3.74-.64,8.91.3,12.47l-.25.5-.36-.44c-4.36-.92-12.64-.2-17.42-.18-.42-12.8-.14-25.7-.19-38.51Z"/>
    <path class="st11" d="M728.65,588.93l.02,38.73.02,18.07c-4.51-.02-14.67-.78-18.66.3l-.18-.2c1.23-4.7.51-13.29.5-18.35l-18.08-.05-.02-18.98c5.95.07,11.89.01,17.84-.16v-19.11c6.18,0,12.38.08,18.56-.25Z"/>
    <path class="st9" d="M691.67,482.05l17.83-.04c.04,11.51-.05,23.03.17,34.54-11.9-.3-23.86-.07-35.77-.07l.05-16.92c-5.81-.12-11.65,0-17.46,0l-.08-.39c11.76,0,23.5.3,35.26.26v-17.38Z"/>
    <path class="st3" d="M728.64,552.04c6.06,0,12.17-.14,18.23.07-.15,12.27-.3,24.59-.05,36.86-6.04.17-12.13-.01-18.17-.04v-36.9Z"/>
    <path class="st12" d="M692.56,552.74l17.66.03c-.02,6.07.02,12.15-.07,18.22-5.94.01-11.9-.08-17.84.05.13-6.11-.09-12.2.25-18.3Z"/>
    <path class="st7" d="M673.75,444.84c6.05-.05,12.1-.05,18.16-.02l-.06,17.9h-18.08c-.1-5.96-.1-11.92-.01-17.88Z"/>
    <path class="st12" d="M656.85,645.79l17.52-.05c.09,12.4.1,24.8.03,37.2h-16.9s-.14,17.81-.14,17.81c-5.72.02-11.49-.12-17.2.12l-.09,17.77-18.31.03c-.5,6.01-.27,12.15-.26,18.18-12.06.06-24.16-.06-36.21.36-.08,5.91-.1,11.81-.08,17.72-17.91-.1-35.89.19-53.79-.17.09,5.82.1,11.64.05,17.46h-26.41c-5.06,0-10.21-.19-15.25.16v18.14c-19.73-.3-39.46-.4-59.18-.3-10.24,0-20.6-.33-30.82.09l.03,17.73-11-.03c-2.26-.24-4.57-.11-6.84-.08-.05-11.86.05-23.71.28-35.57l18.17-.1-.04-17.78,19.34-.07.12-35.26,18.02.08c-.6,5.77-.19,11.92-.14,17.73l52.09-.25v-17.35s58.51-.15,58.51-.15l.11-17.67c18.36,0,36.82.31,55.16-.28.36-5.89.06-11.95.05-17.86,5.95,0,11.9-.04,17.85-.11,5.82-.27,11.7-.15,17.53-.2v-18s17.72-.01,17.72-.01l.09-19.28Z"/>
    <path class="st5" d="M656.85,645.79l17.52-.05c.09,12.4.1,24.8.03,37.2h-16.9s-.14,17.81-.14,17.81c-5.72.02-11.49-.12-17.2.12l-.09,17.77-18.31.03c-.5,6.01-.27,12.15-.26,18.18-12.06.06-24.16-.06-36.21.36-.08,5.91-.1,11.81-.08,17.72-17.91-.1-35.89.19-53.79-.17-.71-5.69-.08-12.14-.02-17.9l35.9-.1.08-17.38,36.3-.1.02-17.8c4.21-.85,13.02-.18,17.65-.14,0-6.01-.07-12.03.16-18.04,5.82-.27,11.7-.15,17.53-.2v-18s17.72-.01,17.72-.01l.09-19.28Z"/>
    <path class="st5" d="M419.75,754.4h34.88c.03,5.92-.08,11.89.12,17.81l35,.02c-.01-5.85.01-11.69.07-17.54,13.78-.03,27.85-.64,41.6.06.09,5.82.1,11.64.05,17.46h-26.41c-5.06,0-10.21-.19-15.25.16v18.14c-19.73-.3-39.46-.4-59.18-.3-10.24,0-20.6-.33-30.82.09l.03,17.73-11-.03c-2.26-.24-4.57-.11-6.84-.08-.05-11.86.05-23.71.28-35.57l18.17-.1-.04-17.78,19.34-.07Z"/>
    <path class="st5" d="M466.93,427.07l44.18.03c.02,5.77-.34,11.8.11,17.54l.13.17c5.5-1.01,12.08-.18,17.71-.21l-.17,54.54c-5.83.01-11.67-.04-17.49.07.02,4.43.72,13.46-.24,17.44-6.19-.53-12.7-.2-18.92-.2l-37.4.18.02-17.06c-5.78-.26-11.54-.31-17.33-.33l.03-55.07,17.11-.06c.9-5.21.26-11.51.25-16.83,4-.03,8.01,0,12.01-.22Z"/>
    <path class="st7" d="M492.47,444.5c6.16-.1,12.61-.51,18.75.13l.13.17c.25,5.93.07,11.93.06,17.86h-18.88c-.17-6.03-.05-12.11-.06-18.16Z"/>
    <path class="st12" d="M638.91,517.06c5.97-.07,11.95-.08,17.92,0-.02,5.87.06,11.76-.07,17.64-.4,5.84-.19,11.75-.22,17.61-5.94-.3-11.91-.2-17.86-.18l-.03,18.43c-30.26.09-60.52,0-90.78-.27,0-5.94.35-12.23-.29-18.13-.28-5.83-.05-11.76-.06-17.6,16.82-.38,33.7-.04,50.53-.05,13.49,0,27.14-.48,40.62.07-.05-5.24-.82-12.45.23-17.49Z"/>
    <path class="st5" d="M547.54,534.54c16.82-.38,33.7-.04,50.53-.05,13.49,0,27.14-.48,40.62.07v17.6s-61-.02-61-.02l-19.45.07c-3.51.02-7.14.23-10.63-.06-.28-5.83-.05-11.76-.06-17.6Z"/>
    <path class="st5" d="M638.91,517.06c5.97-.07,11.95-.08,17.92,0-.02,5.87.06,11.76-.07,17.64-6.01,0-12.08.16-18.09-.13-.05-5.24-.82-12.45.23-17.49Z"/>
    <path class="st12" d="M638.95,645.79c5.96.12,11.94.01,17.9,0l-.09,19.28h-17.72s0,18.02,0,18.02c-5.82.05-11.71-.07-17.53.2.21-6.11.04-12.27.03-18.38l17.47.12c-.1-6.41-.04-12.83-.05-19.24Z"/>
    <path class="st12" d="M511.4,516.78c6.07.25,12.21-.17,18.25.19-.02,5.39-.68,11.67.16,16.95l.39.37c5.49.87,11.75.32,17.32.25,0,5.84-.22,11.78.06,17.6-5.93-.34-11.96-.12-17.9-.11l-.06-17.87c-6.06.1-12.13.04-18.19.05l-.04-17.43Z"/>
    <path class="st12" d="M437.97,665.83c3.08,0,15.7.78,17.31-.65-.82,4.37-.46,9.27-.46,13.72.04,7.63.03,15.26-.02,22.89-5.52-.01-11.08-.13-16.6.02.04,4.34.8,13.66-.32,17.42-.32-4.05-.03-8.35-.02-12.42l.06-23.84c.15-5.7.06-11.42.04-17.13Z"/>
    <path class="st12" d="M691.82,590.08c0-2.58-.11-5.23.32-7.78.16,8.7-.06,17.41-.02,26.11-5.95.07-11.89.1-17.84.08-.55-6.07-.19-12.46-.2-18.56,5.92-.02,11.83.32,17.75.15Z"/>
    <path class="st12" d="M673.94,608.71l.33-.21c.07,7.62.07,15.25-.01,22.87-.03,4.74-.3,9.66.11,14.37l-17.52.05c.08-6.1.05-12.2-.08-18.3h17.16s.01-18.78.01-18.78Z"/>
    <path class="st11" d="M218.26,408.47l36.45-.03.02,18.62c5.99.02,12.02-.1,18.01.18l.09,36.3c0,5.65-.55,12.06.23,17.62l.2.09,17.94.02v35.79c5.48,0,11.02-.13,16.51.03l1.29-.05-.08-54.05,18.36-.07.03-35.66c5.99.47,12.16.16,18.17.04,0,11.91-.28,23.9.03,35.8l.07,108.18c3.13,0,15.84.71,18.06-.34-.48,19.11-.28,38.34-.08,57.45l18.08-.05.3,36.77c6.09.02,12.2.15,18.29.05l.21.14c-.3,5.82-.13,11.7-.1,17.53l37.6.13-.06,23.84c-.01,4.07-.3,8.37.02,12.42l-18.02-.08-.12,35.26-19.34.07.04,17.78-18.17.1c-.23,11.85-.33,23.71-.28,35.57,2.27-.03,4.58-.15,6.84.08-2.3.2-4.57.29-6.87.32,0,5.89.54,12.42-.31,18.24-6.04.01-12.09-.06-18.13.06-.06,6.1-.11,12.2.1,18.3-6.04.16-12.08.21-18.12.15,0-6.15-.24-12.39.04-18.53-5.73-.16-11.49-.02-17.22-.03l-.03-18.18-4.57-.33c-10.18.63-21.78,0-32.1-.01-.22-5.83-.07-11.71-.09-17.54l-18.6-.1.06-36.38h54.88c-.06-5.87-.07-11.73,0-17.59,4.79,0,13.06.67,17.37-.38l.38-.76c-.42-5.86-.07-12.02-.07-17.91l-.11-34.66c-5.91-.12-11.83-.06-17.74-.09l-.06-17.46c-6.05-.11-12.61.6-18.58-.25v-36.41c-5.75-.08-11.49-.09-17.24-.04-.69.58-.58.71-.65,1.57-.41,5.13.73,10.77-.16,15.79-5.67-.04-11.34,0-17,.14l-.87.36c-.64,1.92-.3,4-.5,5.99.23,4.17.05,8.46.07,12.64-5.88.07-11.78-.01-17.66-.02l-.04,17.78c-12.24.08-24.47.09-36.71.02v-54.43s18.16,0,18.16,0c-.29-12.78-.37-25.55-.25-38.33l12.83-.03c2-.2,4.07-.2,6.08-.29l.04-17.27-.14-.5c-1.66-1.32-15.4-.23-18.78-.65-.25-11.73-.07-23.51-.09-35.25-5.93-.37-11.91-.24-17.85-.24-.54-42.38-.02-84.82-.05-127.21Z"/>
    <path class="st3" d="M218.26,408.47l36.45-.03.02,18.62c5.99.02,12.02-.1,18.01.18l.09,36.3c0,5.65-.55,12.06.23,17.62l.2.09,17.94.02v35.79c5.48,0,11.02-.13,16.51.03l-.02.23c-5.48.26-11.01.15-16.49.09-.07,11.65-.09,23.29-.04,34.94-.15,6.3-.02,12.63-.02,18.93l-18.49.07-.04-35.81c-5.94.11-11.89.05-17.83.06l-.02-18.17-18.25.21c0,5.99.05,11.99-.04,17.98,6.15-.1,12.29-.12,18.44-.06.15,11.8.2,23.6.15,35.39-6.02-.05-12.88-.68-18.79.21-.25-11.73-.07-23.51-.09-35.25-5.93-.37-11.91-.24-17.85-.24-.54-42.38-.02-84.82-.05-127.21Z"/>
    <path class="st5" d="M218.26,408.47l36.45-.03.02,18.62c-6.06.12-12.16-.05-18.2.2-.37,30.13-.39,60.26-.03,90.39,0,5.99.05,11.99-.04,17.98,6.15-.1,12.29-.12,18.44-.06.15,11.8.2,23.6.15,35.39-6.02-.05-12.88-.68-18.79.21-.25-11.73-.07-23.51-.09-35.25-5.93-.37-11.91-.24-17.85-.24-.54-42.38-.02-84.82-.05-127.21Z"/>
    <path class="st5" d="M254.73,427.05c5.99.02,12.02-.1,18.01.18l.09,36.3c0,5.65-.55,12.06.23,17.62-6.05.07-12.11.04-18.16-.1-.34-17.99-.14-36.01-.17-54Z"/>
    <path class="st5" d="M273.26,481.25l17.94.02v35.79s-18.2-.01-18.2-.01l-.03-23.89c0-3.73-.52-8.28.29-11.9Z"/>
    <path class="st5" d="M345.73,682.85h17.59s.03,17.66.03,17.66l18.59-.03v35.99s-36.12,0-36.12,0l.03,17.6c-5.93-.12-11.85-.16-17.78-.1.03,6.04.03,12.08,0,18.12l-36.34.11-.17,18.24-18.6-.1.06-36.38h54.88c-.06-5.87-.07-11.73,0-17.59,4.79,0,13.06.67,17.37-.38l.38-.76c1.01-5.65.35-12.36.34-18.11-.03-11.42.06-22.86-.24-34.27Z"/>
    <path class="st3" d="M328.06,753.97c5.93-.05,11.86-.02,17.78.1,5.73.39,11.47.13,17.21.26l.12,17.84-17.65.06c.08,6.12.45,12.32.13,18.43l-17.26-.21c.02,5.55.52,11.6-.21,17.08-1.4.46-2.99.4-4.45.47-10.18.63-21.78,0-32.1-.01-.22-5.83-.07-11.71-.09-17.54l.17-18.24,36.34-.11c.03-6.04.03-12.08,0-18.12Z"/>
    <path class="st5" d="M291.55,790.45c12.28-.14,24.56.05,36.85.01.02,5.55.52,11.6-.21,17.08-1.4.46-2.99.4-4.45.47-10.18.63-21.78,0-32.1-.01-.22-5.83-.07-11.71-.09-17.54Z"/>
    <path class="st5" d="M218.29,628.25h18.17c.08,6,.12,12.01.12,18.02,5.16.57,10.65.2,15.86.17,6.66-.04,13.42.14,20.07-.21.01,1.99-.09,4.05.14,6.03.23,4.17.05,8.46.07,12.64-5.88.07-11.78-.01-17.66-.02l-.04,17.78c-12.24.08-24.47.09-36.71.02v-54.43Z"/>
    <path class="st5" d="M327.3,427.25c5.99.47,12.16.16,18.17.04,0,11.91-.28,23.9.03,35.8-5.91.43-11.96.16-17.88.01l.03,54.01c-6.13,0-12.57.43-18.66-.09l-.08-54.05,18.36-.07.03-35.66Z"/>
    <path class="st5" d="M291.17,589.48l17.97.05c.11,12.92.42,25.88.16,38.8,6.09.09,12.18.09,18.27,0l.03,36.41c-6.08-.03-12.52-.48-18.55.13v-36.41c-5.75-.08-11.49-.09-17.24-.04l-.66-.39c-.76-4.01-.29-8.73-.27-12.84.05-8.57.14-17.13.27-25.7Z"/>
    <path class="st5" d="M236.21,589.92l12.83-.03c2.04.09,4.05.15,6.09.1l-.1,18.59c-.03,6.54-.23,13.13-.04,19.66l-18.52.02c-.29-12.78-.37-25.55-.25-38.33Z"/>
    <path class="st5" d="M363.35,808.3l18.31-.04c-.19,6.04-.43,12.26,0,18.29-6.04.01-12.09-.06-18.13.06-.06,6.1-.11,12.2.1,18.3-6.04.16-12.08.21-18.12.15,0-6.15-.24-12.39.04-18.53h17.84c-.14-6.07-.04-12.16-.05-18.23Z"/>
    <path class="st5" d="M307.68,517.32l1.24.25c.51,4.04.18,8.44.16,12.53l-.03,22.15-17.91.09c-.04-11.65-.03-23.29.04-34.94,5.48.06,11.02.17,16.49-.09Z"/>
    <path class="st3" d="M255.16,572.32h.26c.13,5.75.16,11.5.08,17.25,3.33-.02,6.69-.15,10.01-.05,2.5.16,4.97.18,7.48.16.01,6.27-.02,12.55.07,18.82l-18.04.08.1-18.59c-2.04.06-4.05,0-6.09-.1,2-.2,4.07-.2,6.08-.29l.04-17.27Z"/>
    <path class="st3" d="M236.46,628.25l18.52-.02c.02,5.92.19,11.9-.03,17.82-5.99-.01-12.44-.49-18.37.23,0-6.01-.05-12.02-.12-18.03Z"/>
    <path class="st5" d="M328.3,808.33l17.44.07c.04,5.9.55,12.29-.18,18.14-5.73-.16-11.49-.02-17.22-.03l-.03-18.18Z"/>
    <path class="st5" d="M255.42,572.33l.33-.71c3.76-1,12.76-.28,17.09-.26.07,6.01.11,12.02.1,18.03-2.44,0-5-.15-7.42.13-3.32-.1-6.68.03-10.01.05.08-5.75.05-11.49-.08-17.24Z"/>
    <path class="st5" d="M327.64,665.11l17.9-.05c0,5.85.19,11.75-.09,17.59-5.91-.12-11.83-.06-17.74-.09l-.06-17.46Z"/>
    <path class="st5" d="M273.05,628.28l17.75.02c-.02,5.69-.46,11.84.22,17.47-5.67-.04-11.34,0-17,.14l-.8-.47c-1-4.66-.23-12.18-.16-17.17Z"/>
    <path class="st2" d="M746.85,426.62h90.47s-.04,54.51-.04,54.51c-5.89.13-11.79-.02-17.67.15-.21,17.87.29,35.77-.08,53.64l-18.33.02c-.07,1.74-.03,3.58-.31,5.3-.07,22.38.47,44.94-.28,67.3-5.88.18-11.76.28-17.65.31-.12,6.51-.19,13.02-.19,19.53-5.6.03-12.14-.61-17.63.32-.94-3.56-.3-8.73-.3-12.47v-26.05c-2.15.11-4.25.22-6.4,0l.03-.21,6.26-.1.06-36.66c-5.91.14-11.84.06-17.75.07.3-4.98.56-10.34.19-15.31-.08-1.09-.11-1.55-.95-2.26.13-.24.35-.44.4-.71.49-2.22-.01-19.5,0-23.02l.18-84.34Z"/>
    <path class="st4" d="M765.05,444.78c6.08-.08,12.16,0,18.24.01.11,6.06-.28,12.27.1,18.29l-.03,54.6c5.97-.06,11.98.02,17.94-.22-.2,5.75-.45,11.74-.09,17.47-.07,1.74-.03,3.58-.31,5.3-.07,22.38.47,44.94-.28,67.3-5.88.18-11.76.28-17.65.31-.12,6.51-.19,13.02-.19,19.53-5.6.03-12.14-.61-17.63.32-.94-3.56-.3-8.73-.3-12.47v-26.05c-2.15.11-4.25.22-6.4,0l.03-.21,6.26-.1.06-36.66c.43-12.83.21-25.75.21-38.59l.06-68.84Z"/>
    <path class="st2" d="M782.8,534.93l18.03-.03c-.06,1.78,0,3.55.07,5.33-.07,22.38.47,44.94-.28,67.3-5.88.18-11.76.28-17.65.31-.12,6.51-.19,13.02-.19,19.53-5.6.03-12.14-.61-17.63.32-.94-3.56-.3-8.73-.3-12.47v-26.05c6.02-.06,12.03-.07,18.05-.02l-.09-54.22Z"/>
    <path class="st9" d="M783.29,444.79c6.09,0,12.21-.12,18.3.02l17.94.07c.03,6.14.02,12.27-.03,18.41-5.96,0-11.93.1-17.88-.06l-.07,35.3c-.02,6.19.38,12.77-.26,18.93-5.96.24-11.97.16-17.94.22l.03-54.6c-.39-6.02,0-12.23-.1-18.29Z"/>
    <path class="st10" d="M783.29,444.79c6.09,0,12.21-.12,18.3.02.07,6.07.07,12.14-.02,18.21-3.81-.34-14.85-.94-18.18.06-.39-6.02,0-12.23-.1-18.29Z"/>
    <path class="st5" d="M747.11,627.57c4.78-.02,13.06-.74,17.42.18l.36.44c-.1,5.89-.16,11.78-.16,17.67-5.73,0-11.47-.05-17.2.03-.17,5.95-.26,11.91-.26,17.86-12.35.29-24.71-.21-37.05.02-.15-5.9.14-11.87-.17-17.75,3.98-1.08,14.14-.32,18.66-.3l-.02-18.07,18.44-.1Z"/>
    <path class="st1" d="M787.23,375.66c6.79.15,13.58.13,20.38-.05-.38,6.81-.27,13.66-.27,20.49-6.57.46-13.33.15-19.93.14-.17-6.85-.13-13.72-.19-20.57h0Z"/>
    <path class="st1" d="M787.38,334.04l20.1-.12.14,20.36-20.15.1c.24-6.78.21-13.56-.09-20.34h0Z"/>
    <path class="st1" d="M767.61,354.49h19.55l-.03,20.74c-6.46-.15-12.94-.07-19.4-.1.04-6.88,0-13.76-.14-20.65h0Z"/>
    <path class="st1" d="M807.79,354.51h19.47c.08,6.78.16,13.64-.44,20.4-5.82,1.02-13.05.27-19.04.31v-20.7h0Z"/>
  </g>
</svg>