<?xml version="1.0" encoding="UTF-8"?>
<svg id="Layer_1" xmlns="http://www.w3.org/2000/svg" version="1.1" viewBox="0 0 1024 1024">
  <!-- Generator: Adobe Illustrator 29.4.0, SVG Export Plug-In . SVG Version: 2.1.0 Build 152)  -->
  <defs>
    <style>
      .st0 {
        fill: #95a0a5;
      }

      .st1 {
        fill: #0f1922;
      }

      .st2 {
        fill: #3a6579;
        stroke: #799aa9;
        stroke-miterlimit: 10;
        stroke-width: 16px;
      }

      .st3, .st4, .st5 {
        fill: #06090b;
      }

      .st6 {
        fill: #998c7a;
      }

      .st7 {
        fill: #3d8691;
      }

      .st8 {
        fill: #71a97b;
      }

      .st9 {
        fill: #70c0cb;
      }

      .st10 {
        fill: #c5dcc1;
      }

      .st11 {
        fill: #26333c;
      }

      .st12 {
        fill: #4d5c65;
      }

      .st4 {
        fill-opacity: .99;
      }

      .st5 {
        fill-opacity: .98;
      }

      .st13 {
        fill: #3d4d59;
      }

      .st14 {
        fill: #c4ccce;
      }

      .st15 {
        fill: #5b6870;
      }

      .st16 {
        fill: #685f56;
      }

      .st17 {
        fill: #748086;
      }

      .st18 {
        fill: #d9d2bf;
      }

      .st19 {
        fill: #3e7e64;
      }
    </style>
  </defs>
  <circle class="st2" cx="513" cy="511" r="486"/>
  <path class="st1" d="M416.22,187.68c7.14-.54,14.57-.13,21.74-.13h41.49s129.9.02,129.9.02c-.18,5.66-.06,11.36-.07,17.02h25.47s.1,19.38.1,19.38l46.59-.02c-.08,8.23-.05,16.47.09,24.7h24.62c0,3.86-.89,22.75.87,24.71,7.94-.12,15.88-.15,23.82-.09.04,5.86.96,17.53-.32,22.69l.7.3,18.09-.05v22.08s26.46-.04,26.46-.04c0,8.35-.2,16.76.16,25.1,1.78,1.08,20.83.51,23.75.3l.64.44c.48,5.48.16,11.15.15,16.66v31.16s.03,102.95.03,102.95l-24.78-.05.04,33.16c15.81-.02,31.65-.26,47.45.02,10-.15,20.27-.51,30.24,0,1.41-.04,2.81-.22,4.14.32.51,11.89-.1,23.86.17,35.77,10.45-.24,21.19.45,31.59-.38l.09,119.35h-10.89s-12.63.01-12.63.01c-2.46,3.96-.77,14.36-1.69,19.6-1.7.29-4.23.39-5.62,1.43-2.66.07-5.32.08-7.99.06l.06,60.8h-170.94s.11-23.28.11-23.28c.02-4.01.5-8.67-.28-12.59-1.2-.33-2.19-.33-3.41-.28l.55-.64c-1.94-1.37-15.1-.7-18.31-.7-1.2,6.47-.58,13.36-1.17,19.88-.02.26.03.53.05.79-3.87.07-21.05-.77-23.03.78-3.39,5.62,1.41,17.44-2.65,21.47-7.51-.73-15.6-.1-23.17-.03-.47,8.14-.16,16.4-.13,24.55-9.94-.07-19.89-.05-29.83.05-.07,7.33-.08,14.66-.02,21.99l-180.65.04c.17-7.35,0-14.75,0-22.11l-30.8.06c.24-8.22.02-16.51.01-24.74-7.64.07-15.28.08-22.91.05.18-7.33.06-14.69.07-22.02l-17.7.04c.18-6.48.06-12.98.09-19.47-7.36.08-14.71.07-22.07-.03.46-8.12.13-16.38.26-24.53-7.32-.18-14.68-.08-22.01-.1.4-6.95.16-14.04.19-21.01-6.93-.11-13.87-.06-20.81-.09.39-15.27.06-30.63.08-45.92l-14.16.08.03-25.45-17.78-.02c-.05,8.49-.03,16.97.06,25.45l-30.2.03c-5.79,0-11.7.24-17.47-.28.22,6.96.07,13.96.08,20.93h-21.98c-.1,8.41,0,16.82.02,25.22l-52.8-.03c1.13-7.52.34-16.11.34-23.78l-.04-48.54c6.6-.07,19.89-1.15,25.68.46.71-5.67.35-11.7.36-17.43v-29.69c8.91-.05,17.82-.04,26.74.05.45-7.29.16-14.72.14-22.03-8.94-.2-17.9-.03-26.84-.01.07-15.61,0-31.21-.21-46.82-6.53.12-13.06.13-19.59.02-2.09.09-4.2.03-6.29.03.18-44.87.55-89.85-.06-134.71,17.49-.32,35.03-.07,52.52-.04l.02,30.46c7.31.02,14.69.24,21.98-.22v19.18s.07,6.07.07,6.07h14.49s10.64.02,10.64.02c.65,7.54.33,15.3.33,22.88,0,7,.29,14.15-.04,21.13l.14,9.05c7.3-.15,14.6-.2,21.9-.15,0,8.64-.04,17.28.07,25.92l17.67.03v-25.94c4.57.08,9.21.33,13.76-.07.63-1.12.45-2.53.48-3.8-.87-7.5-.12-15.96-.11-23.54l-.04-50.58,20.97.25c-.53-15.75-.08-31.64-.23-47.41h7.15c3.65-.2,11.18,1.14,14.18-.55.6-.34.56-1.43.67-2.08-.34-6.18-.1-12.5-.11-18.7-.03-16.1.26-32.24-.22-48.32l-21.6-.02c.32-5.82.07-11.78.06-17.61l-.12-32.43c7.21-.4,14.44.09,21.65-.27.38-6.38.12-12.83-.06-19.22l111.89-.04-.1-16.92Z"/>
  <path class="st1" d="M304.49,223.86l.66.55c-.55,2.49-.4,5.26-.27,7.8.7,5.42.4,11.01.39,16.47,4.51.11,9.76.75,14.2-.1l.39.08c4.79,1.45,14.39.28,19.8.45-.08,8.07-.12,16.14-.1,24.21-.12,7.62-.11,15.24.02,22.86v27.45s.13.25.13.25c-.12,6.7-.15,13.4-.12,20.1-6.58-.05-13.22.27-19.79-.01-.08,8.6-.1,17.2-.06,25.81,23.2,0,46.45-.33,69.64.12.05-8.68.06-17.36,0-26.05,9.24.22,18.48.24,27.73.05-.05-8.51-.04-17.01.01-25.52,16.56.34,33.15.13,49.72.13h85.12l-.04,25.33c8.82.14,17.63.16,26.45.08,0,8.62-.16,17.28-.01,25.9l31.41.05c-.06-8.45-.77-17.57.19-25.94,8.13.11,16.27.1,24.4-.04l.05,87.42c0,12.58-.33,25.27.03,37.84,8.12.02,16.31-.17,24.42.1l.04,25.23c6.65-.05,14.24-.84,20.77.13.62.75.44.37.66,1.07-.23,7.32.35,14.87-.24,22.15l-21.21-.03c0,7.92-.23,15.91.06,23.83-8.56.84-17.7.24-26.32.23-18.23-.1-36.45-.07-54.67.1.1-8.06.12-16.12.08-24.18h-26.57s.12-23.28.12-23.28l-23.78.03-82.02.05c-8.32,1.12-19.93.32-28.66.33l.02,22.5c-.11,8.14-.1,16.28,0,24.41-6.47.12-12.94.18-19.42.17l-.02,24.21,19.31-.08c.01,7.47-.07,14.96.08,22.43-9.21-.4-18.47-.25-27.69-.26.01,7.74-.09,15.5.06,23.24-14.79.1-29.8.56-44.58.04l-5.69.08c0,8.36-.13,16.73,0,25.09.01,22.3-.57,44.78.11,67.06-11.4,0-22.84-.21-34.23.05-.33-6.94-.23-13.94-.14-20.88l-21.7-.02.04-46.35c-6.87-.05-13.82.1-20.68-.23.07-15.99-.26-32.02.03-48.01l-54.73-.07v23.23c-8.51-.02-17.05-.2-25.55-.06l-.04,24.84c-7.26.13-14.53.15-21.8.04l-.06,20.31c6.96-.16,13.95-.05,20.92-.07.08-3.78.97-13.73,0-16.84-.43-1.38-2.39-1.93-3.61-2.63,1.24-.61,3.49-.35,4.88-.17.22,6.96.07,13.96.08,20.93h-21.98c-.1,8.41,0,16.82.02,25.22l-52.8-.03c1.13-7.52.34-16.11.34-23.78l-.04-48.54c6.6-.07,19.89-1.15,25.68.46.71-5.67.35-11.7.36-17.43v-29.69c8.91-.05,17.82-.04,26.74.05.45-7.29.16-14.72.14-22.03-8.94-.2-17.9-.03-26.84-.01.07-15.61,0-31.21-.21-46.82-6.53.12-13.06.13-19.59.02-2.09.09-4.2.03-6.29.03.18-44.87.55-89.85-.06-134.71,17.49-.32,35.03-.07,52.52-.04l.02,30.46c7.31.02,14.69.24,21.98-.22v19.18s.07,6.07.07,6.07h14.49s10.64.02,10.64.02c.65,7.54.33,15.3.33,22.88,0,7,.29,14.15-.04,21.13l.14,9.05c7.3-.15,14.6-.2,21.9-.15,0,8.64-.04,17.28.07,25.92l17.67.03v-25.94c4.57.08,9.21.33,13.76-.07.63-1.12.45-2.53.48-3.8-.87-7.5-.12-15.96-.11-23.54l-.04-50.58,20.97.25c-.53-15.75-.08-31.64-.23-47.41h7.15c3.65-.2,11.18,1.14,14.18-.55.6-.34.56-1.43.67-2.08-.34-6.18-.1-12.5-.11-18.7-.03-16.1.26-32.24-.22-48.32l-21.6-.02c.32-5.82.07-11.78.06-17.61l-.12-32.43c7.21-.4,14.44.09,21.65-.27Z"/>
  <path class="st13" d="M108.21,360.61c17.49-.32,35.03-.07,52.52-.04l.02,30.46c7.31.02,14.69.24,21.98-.22v19.18s-.49.18-.49.18c-1.72-3.84-.79-13.08-.77-17.48-3.98.04-18.3.85-21.07-1.07-.05,8.14-.06,16.27-.03,24.41l22.04.02-.02,53.35c8.51-.1,17.02-.09,25.53.03l-.03,25.26-.03,23.03c7.36.32,14.73.03,22.09.17l-.03,23.87c5.74.83,12.29.16,18.1.05l.05-24h14.57c-.1-13.14-.51-26.43,0-39.56-.06-2.95.02-5.9.04-8.85,6.87-.12,13.75,0,20.63-.13l.27.1c-.59,5.79-.34,11.8-.33,17.62l.07,30.45c6.82,1.02,14.62.33,21.55.31l.04,24.24c4.89-.01,9.83.08,14.72-.08-.12,15.6-.09,31.21.09,46.81l19.53.02c.05,7.49.2,15,0,22.49,1.88.07,3.83.04,5.68.34l-5.69.08c0,8.36-.13,16.73,0,25.09.01,22.3-.57,44.78.11,67.06-11.4,0-22.84-.21-34.23.05-.33-6.94-.23-13.94-.14-20.88l-21.7-.02.04-46.35c-6.87-.05-13.82.1-20.68-.23.07-15.99-.26-32.02.03-48.01l-54.73-.07v23.23c-8.51-.02-17.05-.2-25.55-.06l-.04,24.84c-7.26.13-14.53.15-21.8.04l-.06,20.31c6.96-.16,13.95-.05,20.92-.07.08-3.78.97-13.73,0-16.84-.43-1.38-2.39-1.93-3.61-2.63,1.24-.61,3.49-.35,4.88-.17.22,6.96.07,13.96.08,20.93h-21.98c-.1,8.41,0,16.82.02,25.22l-52.8-.03c1.13-7.52.34-16.11.34-23.78l-.04-48.54c6.6-.07,19.89-1.15,25.68.46.71-5.67.35-11.7.36-17.43v-29.69c8.91-.05,17.82-.04,26.74.05.45-7.29.16-14.72.14-22.03-8.94-.2-17.9-.03-26.84-.01.07-15.61,0-31.21-.21-46.82-6.53.12-13.06.13-19.59.02-2.09.09-4.2.03-6.29.03.18-44.87.55-89.85-.06-134.71Z"/>
  <path class="st1" d="M108.21,360.61c17.49-.32,35.03-.07,52.52-.04l.02,30.46c7.31.02,14.69.24,21.98-.22v19.18s-.49.18-.49.18c-1.72-3.84-.79-13.08-.77-17.48-3.98.04-18.3.85-21.07-1.07-.05,8.14-.06,16.27-.03,24.41l22.04.02-.02,53.35c8.51-.1,17.02-.09,25.53.03l-.03,25.26-.03,23.03c-8.35-.08-16.71-.07-25.06.01-5.6-.14-16.91.79-21.55-.28,0,8.05-.21,16.16.07,24.21,7.16.37,14.35.25,21.52.24l-.03,22.99c-7.15,0-14.33-.12-21.48.06-.29,15.55.03,31.1-.13,46.65l-27.27.05v45c5.68,0,20.07-.79,24.84.41l1.7-.4c6.96-.16,13.95-.05,20.92-.07.08-3.78.97-13.73,0-16.84-.43-1.38-2.39-1.93-3.61-2.63,1.24-.61,3.49-.35,4.88-.17.22,6.96.07,13.96.08,20.93h-21.98c-.1,8.41,0,16.82.02,25.22l-52.8-.03c1.13-7.52.34-16.11.34-23.78l-.04-48.54c6.6-.07,19.89-1.15,25.68.46.71-5.67.35-11.7.36-17.43v-29.69c8.91-.05,17.82-.04,26.74.05.45-7.29.16-14.72.14-22.03-8.94-.2-17.9-.03-26.84-.01.07-15.61,0-31.21-.21-46.82-6.53.12-13.06.13-19.59.02-2.09.09-4.2.03-6.29.03.18-44.87.55-89.85-.06-134.71Z"/>
  <path class="st17" d="M133.87,415.95c8.83.12,17.67.14,26.5.08l22.04.02-.02,53.35c8.51-.1,17.02-.09,25.53.03l-.03,25.26-.03,23.03c-8.35-.08-16.71-.07-25.06.01-5.6-.14-16.91.79-21.55-.28l.02-23.02c-9.01-.07-18.02-.07-27.04,0-.93-8.94-.35-18.42-.35-27.43v-51.05Z"/>
  <path class="st15" d="M159.4,390.88l.99.75c-.05,8.14-.06,16.27-.03,24.41-8.83.06-17.67.03-26.5-.08v-25.01c8.49.17,17.05.22,25.53-.06Z"/>
  <path class="st3" d="M108.21,360.61c17.49-.32,35.03-.07,52.52-.04l.02,30.46c7.31.02,14.69.24,21.98-.22v19.18s-.49.18-.49.18c-1.72-3.84-.79-13.08-.77-17.48-3.98.04-18.3.85-21.07-1.07l-.99-.75c-.18-9.59-.06-19.21,0-28.8-16.49.05-33.27.56-49.73-.08l.04,109.16c0,2.32-.4,22.13.66,22.98.79.64,1.64.66,2.6.83.53.1,1.07.22,1.6.32-2.09.09-4.2.03-6.29.03.18-44.87.55-89.85-.06-134.71Z"/>
  <path class="st3" d="M108.3,610.75c6.6-.07,19.89-1.15,25.68.46-2.12,1.46-20.23.76-24.24.85v69.86c16.47.15,33.16.67,49.63-.01.06-5.19,1.21-20.95-.6-24.85l1.7-.4c6.96-.16,13.95-.05,20.92-.07.08-3.78.97-13.73,0-16.84-.43-1.38-2.39-1.93-3.61-2.63,1.24-.61,3.49-.35,4.88-.17.22,6.96.07,13.96.08,20.93h-21.98c-.1,8.41,0,16.82.02,25.22l-52.8-.03c1.13-7.52.34-16.11.34-23.78l-.04-48.54Z"/>
  <path class="st15" d="M283.32,517.46c6.82,1.02,14.62.33,21.55.31l.04,24.24c4.89-.01,9.83.08,14.72-.08-.12,15.6-.09,31.21.09,46.81l19.53.02c.05,7.49.2,15,0,22.49,1.88.07,3.83.04,5.68.34l-5.69.08c0,8.36-.13,16.73,0,25.09-11.32-.51-22.83-.17-34.18-.24-.18-15.93-.21-31.85-.11-47.78-7.19-.1-14.39-.1-21.58,0l-.09-70.97.04-.32Z"/>
  <path class="st15" d="M182.8,517.74c8.35-.09,16.71-.09,25.06-.01,7.36.32,14.73.03,22.09.17l-.03,23.87c-15.69-.26-31.44.7-47.13,0v-24.04Z"/>
  <path class="st12" d="M283.3,469.28l.27.1c-.59,5.79-.34,11.8-.33,17.62l.07,30.45-.04.32h-20.2c-.01-4.57.58-37.44-.44-39.51-.06-2.95.02-5.9.04-8.85,6.87-.12,13.75,0,20.63-.13Z"/>
  <path class="st17" d="M304.84,417.81h84.59c0,6.77-.77,48.7.34,51.58l.07,25.07c9.03.02,18.32.46,27.32.03,9.33-.05,19.39-.87,28.64.09-8.32,1.12-19.93.32-28.66.33l.02,22.5c-.11,8.14-.1,16.28,0,24.41-6.47.12-12.94.18-19.42.17l-.02,24.21,19.31-.08c.01,7.47-.07,14.96.08,22.43-9.21-.4-18.47-.25-27.69-.26.01,7.74-.09,15.5.06,23.24-14.79.1-29.8.56-44.58.04-1.85-.31-3.81-.27-5.68-.34.21-7.49.05-15,0-22.49l-19.53-.02c-.17-15.6-.2-31.21-.09-46.81-4.89.17-9.83.07-14.72.08l-.04-24.24c-6.93.02-14.72.72-21.55-.31l-.07-30.45c0-5.82-.26-11.83.33-17.62.96-6.73.17-20.14.15-27.61,7.05.17,14.11-.05,21.16-.16-.13-7.93-.03-15.88-.04-23.81Z"/>
  <path class="st15" d="M283.72,441.78c7.05.17,14.11-.05,21.16-.16.04,9.24-.02,18.49.12,27.73-7.11.03-14.34.33-21.44.03.96-6.73.17-20.14.15-27.61Z"/>
  <path class="st11" d="M304.92,369.75c4.8.06,9.63.24,14.42,0l.42.04c23.2,0,46.45-.33,69.64.12v24.52s-84.46-.01-84.46-.01c-.05-8.22-.06-16.44-.01-24.67Z"/>
  <path class="st7" d="M445.78,469.3c27.4-.04,54.95-.62,82.33.08-.27,8.38-.37,16.77-.3,25.15l-82.02.05-.02-25.28Z"/>
  <path class="st13" d="M304.88,232.21c.7,5.42.4,11.01.39,16.47,4.51.11,9.76.75,14.2-.1l.39.08c4.79,1.45,14.39.28,19.8.45-.08,8.07-.12,16.14-.1,24.21-.12,7.62-.11,15.24.02,22.86-6.67-.12-13.37,0-20.05,0,.05-7.55.03-15.11-.08-22.66l-14.59-.2c-.3-13.66-.22-27.45,0-41.11Z"/>
  <path class="st11" d="M609.98,343.94c1.46,16.61-.59,33.78-.07,50.5h-31.49s-.05-24.61-.05-24.61l31.41.05c-.06-8.45-.77-17.57.19-25.94Z"/>
  <path class="st0" d="M389.77,469.4h27.34c-.06,8.36-.04,16.73.05,25.09-9,.44-18.29,0-27.32-.03l-.07-25.07Z"/>
  <path class="st13" d="M283.39,417.84l21.45-.02c.01,7.93-.09,15.88.04,23.81-7.05.11-14.11.33-21.16.16.02,7.47.81,20.88-.15,27.61l-.27-.1c-.09-17.15-.06-34.3.09-51.45Z"/>
  <path class="st13" d="M207.89,494.69c7.32.02,14.69-.13,22,.24l.05,22.96c-7.36-.14-14.73.15-22.09-.17l.03-23.03Z"/>
  <path class="st12" d="M339.59,323.64l.13.25c-.12,6.7-.15,13.4-.12,20.1-6.58-.05-13.22.27-19.79-.01-.08,8.6-.1,17.2-.06,25.81l-.42-.04c-.36-8.34-.56-17.45.2-25.76.67-6.5.11-13.59.08-20.16,6.41.04,13.65.74,19.97-.19Z"/>
  <path class="st13" d="M319.54,343.99c-.76,8.31-.57,17.42-.2,25.76-4.79.24-9.62.06-14.42,0-.27-8.49-.13-17.07.02-25.56,4.87-.18,9.73-.25,14.6-.19Z"/>
  <path class="st3" d="M282.83,343.85h7.15c-1.88,1.34-3.55,1.13-5.81,1.26.18,9.94.28,19.88.28,29.83,0,5.85.23,11.78-.38,17.6-6.84.2-13.67.26-20.51.18-.22,9.76.65,71.4-.7,75.12l-.6-2.71c-.87-7.5-.12-15.96-.11-23.54l-.04-50.58,20.97.25c-.53-15.75-.08-31.64-.23-47.41Z"/>
  <path class="st3" d="M197.3,416.05l10.64.03c.65,7.54.33,15.3.33,22.88,0,7,.29,14.15-.04,21.13-.04,1.6,0,3.09-.55,4.61-1.86-2.19-1.1-41.58-1.1-47.41-2.5.08-7.72.79-9.81-.52l.53-.72Z"/>
  <path class="st3" d="M304.51,274.19c.29.33.66.61.86,1.01,1.48,2.94.95,55.64.41,62.31-.11,1.35-.16,2.55-.94,3.71-.34-6.18-.1-12.5-.11-18.7-.03-16.1.26-32.24-.22-48.32Z"/>
  <path class="st7" d="M417.32,343.99l134.22-.09-.02,26.03c0,33.09-.41,66.23.04,99.31-7.58.05-15.15.02-22.72-.09-1.14-8.98-.19-22.22-.18-31.72l-.04-67.5-61.74-.1c.1,7.83.09,15.66-.04,23.49l-.2.94c-3.99,1.17-16.28.3-21.28.27v74.55c-5.36,1.09-21.46.11-28.12.09l.07-125.19Z"/>
  <path class="st9" d="M529.03,369.95c7.49.2,15,.1,22.49-.02,0,33.09-.41,66.23.04,99.31-7.58.05-15.15.02-22.72-.09,1.08-9.08.25-22.74.24-32.3l-.05-66.9Z"/>
  <path class="st9" d="M435.25,369.93c10.35.41,20.85.15,31.21-.03.18,7.67-.67,15.82.39,23.42l-.2.94c-3.99,1.17-16.28.3-21.28.27v74.55c-3.25-.43-6.83-.1-10.13-.05v-99.11Z"/>
  <path class="st17" d="M578.37,417.78l31.65.05c-.13,11.13-.12,22.26.02,33.39.03,5.88.52,12.35-.26,18.14h24.52s-.24,25.32-.24,25.32c8.24-.16,16.49-.19,24.73-.1.17,7.62.06,15.25.05,22.87l-80.55-.02.08-23h-26.52c.19-8.31.08-16.67.09-25,8.81-.11,17.62-.11,26.44,0l-.02-27.87v-23.79Z"/>
  <path class="st15" d="M578.37,417.78l31.65.05c-.13,11.13-.12,22.26.02,33.39.03,5.88.52,12.35-.26,18.14-1.06-4.72-.25-21.53-.22-27.55-10.34.04-20.89.51-31.19-.24v-23.79Z"/>
  <path class="st14" d="M488.17,394.16c7.58.37,15.23.16,22.83.11l.02,22.67h-22.88c.15-7.58.04-15.19.04-22.78Z"/>
  <path class="st14" d="M527.82,494.53l23.78-.03-.12,23.28h26.57c.05,8.06.02,16.12-.08,24.17,18.22-.17,36.45-.21,54.67-.1,8.62,0,17.76.6,26.32-.23-.29-7.92-.07-15.9-.06-23.83l21.21.03c.59-7.28.01-14.82.24-22.15l.44-.96c3.72-.96,15.75-.18,20.15-.19h56.3s.02,47.32.02,47.32c-8.76-.1-17.52-.14-26.29-.11l-.07,23.59c-8.24-.15-16.48-.2-24.72-.13v23.52c-8.38-.71-16.98-.19-25.39-.32l-.06,23.22-21.8-.02c.03,15.36-.01,30.71-.14,46.07-8.15.14-16.32.07-24.47.09,0,8.41.07,16.84-.03,25.25l-26.48-.08.07,21.06-41.75-.07c-6.25,0-13.35-.71-19.49.22v-21.13s-20.04.01-20.04.01c.11-7.93.14-15.87.09-23.8l-25.61-.02.1-22.68-12.23.14.05-70.69c4.08.15,8.17.13,12.24.19l-.11-24.2-26.25.02c0-8.14.04-16.28.13-24.41-19.28-.17-38.57-.22-57.85-.15l-.02-22.5c8.72-.01,20.33.79,28.66-.33l82.02-.05Z"/>
  <path class="st0" d="M658.9,517.79l21.21.03c.12,7.99.14,15.99.06,23.98-6.79.12-14.5.9-21.21-.18-.29-7.92-.07-15.9-.06-23.83Z"/>
  <path class="st17" d="M578.78,224.51c11.87.09,23.74.11,35.61.07,6.58,0,13.37-.34,19.92.28-.03,3.63-.82,22.18.42,24.06l.8.11c7.72.5,15.61.21,23.35.21-.18,6.73-.84,16.65.31,23.12.65.65.64.56,1.46.76,6.92.3,13.86.19,20.78.19,8.15,0,16.31-.09,24.45.04.35,7.64.26,15.31.24,22.96,8.1-.07,16.2-.09,24.3-.06-.01,7.45-.09,14.91-.02,22.36l-63.34-.07c-10.86,0-22,.49-32.83-.17,0,8.44-.41,17.12.13,25.54-8.13.14-16.27.16-24.4.04-.96,8.37-.25,17.49-.19,25.94l-31.41-.05c-.15-8.62,0-17.27.01-25.9-8.82.08-17.63.06-26.45-.08l.04-25.33h-85.12c-16.57,0-33.16.2-49.72-.13-.06,8.51-.06,17.01-.01,25.52-9.24.18-18.48.17-27.73-.05.05,8.68.05,17.36,0,26.05-23.19-.45-46.44-.12-69.64-.12-.04-8.6-.02-17.2.06-25.81,6.56.29,13.21-.03,19.79.01-.04-6.7,0-13.4.12-20.1l-.13-.25v-27.45c8.44.19,16.91.03,25.35,0-.03-4.98-.19-9.99.17-14.96-.12-2.62,0-5.3.02-7.93h24.72s0-24.27,0-24.27l27.96-.05-.14-24.56c9.4.35,18.98.4,28.37.03,18.55.54,37.23.15,55.8.2,25.62.07,51.35.4,76.96-.14Z"/>
  <path class="st15" d="M365.1,281.23c.48,6.43.15,13,.06,19.45-.07,7.7-.11,15.41-.1,23.11-8.41.04-16.95.46-25.35.11l-.13-.25v-27.45c8.44.19,16.91.03,25.35,0-.03-4.98-.19-9.99.17-14.96Z"/>
  <path class="st15" d="M681.44,273.3c8.15,0,16.31-.09,24.45.04.35,7.64.26,15.31.24,22.96-8.22.06-16.45,0-24.67-.17l-.03-22.83Z"/>
  <path class="st0" d="M660.65,273.12c6.92.3,13.86.19,20.78.19l.03,22.83c-7.47.25-14.99.09-22.46.12-.04-4.91-1.03-18.89.46-22.7l1.19-.43Z"/>
  <path class="st1" d="M634.39,343.89l95.76.06,28.17-.02c5.79-.02,11.73-.29,17.5.23l.08,83.79c0,13.68-.61,27.68.17,41.33-6.28-.06-12.56-.13-18.84.08l.03,25.17h-56.3c-4.4,0-16.43-.78-20.15.18l-.44.96c-.22-.69-.04-.32-.66-1.07-6.53-.98-14.12-.18-20.77-.13l-.04-25.23c-8.11-.27-16.3-.07-24.42-.1-.36-12.57-.03-25.26-.03-37.84l-.05-87.42Z"/>
  <path class="st7" d="M634.39,343.89l95.76.06,28.17-.02c5.79-.02,11.73-.29,17.5.23l.08,83.79c0,13.68-.61,27.68.17,41.33-6.28-.06-12.56-.13-18.84.08l-.3-.09c1.22-2.66.37-24.12.39-28.54.59-15.3.04-30.87-.04-46.2l-.03-24.56c-8.7.03-17.37.1-26.07-.1l-62.49.02c.02,7.7.82,17.26-.13,24.76l-9.57-.11c-.18,24.83-.73,49.89-.1,74.71-8.11-.27-16.3-.07-24.42-.1-.36-12.57-.03-25.26-.03-37.84l-.05-87.42Z"/>
  <path class="st9" d="M658.98,370.04l9.28-.12c0,8-.77,16.82.31,24.73l-9.57-.11-.02-24.5Z"/>
  <path class="st7" d="M730.85,469.38c.18-6.48-.82-23.86.33-28.73l26.14.08c-.02,4.42.82,25.88-.39,28.54l.3.09.03,25.17h-56.3c-4.4,0-16.43-.78-20.15.18l-.44.96c-.22-.69-.04-.32-.66-1.07-6.53-.98-14.12-.18-20.77-.13l-.04-25.23c23.92.7,48.01-.11,71.95.12Z"/>
  <path class="st9" d="M731.18,440.64l26.14.08c-.02,4.42.82,25.88-.39,28.54-8.51-.3-17.11-.03-25.63-.03.05-9.48.44-19.14-.12-28.6Z"/>
  <path class="st9" d="M731.19,369.88c8.7.19,17.37.12,26.07.1l.03,24.56-26.17.05.08-24.7Z"/>
  <path class="st14" d="M687.66,394.26h23.99c-.25,7.54-.1,15.12-.07,22.67h-23.91s-.01-22.67-.01-22.67Z"/>
  <path class="st18" d="M766.14,586.43l.78.55c1.1,6.99-.65,14.44.33,21.4,1.1-6.33.41-15.07.13-21.58,5.5-.86,11.84.21,17.45.22,17.2.05,34.59.43,51.76-.42l.04.28c4.93-1.37,15.26-.4,20.65-.33-.79,3.34-1.53,6.7-2.23,10.06-3.28,11.62-7.17,23.59-8.9,35.54-.31,1.72-.46,3.39-.55,5.13l-5.54.74c.08,5.84-.48,10.71-1.98,16.35l-1.83,5.85c-5.33,22.47-12.2,44.64-18.28,66.92-37.26-.79-74.69-.1-111.96-.07,3.36-12.44,7.38-24.75,11.14-37.07l18.8-61.77,7.31-23.94c1.76-5.79,3.85-11.72,4.74-17.71,6.02-.04,12.13.14,18.14-.15Z"/>
  <path class="st13" d="M767.38,586.8c5.5-.86,11.84.21,17.45.22,17.2.05,34.59.43,51.76-.42l.04.28v21.34c-23.08-.06-46.33-.64-69.38.16,1.1-6.33.41-15.07.13-21.58Z"/>
  <path class="st6" d="M749.71,625.93c24.74.61,49.64.03,74.4.01v12.44c-1.11.98-66.39.43-74.42.42l.02-12.87Z"/>
  <path class="st6" d="M742.59,658.78h67.57c-.02,4.51,0,9,.07,13.5-22.5.38-45.06.04-67.57-.02l-.07-13.47Z"/>
  <path class="st0" d="M634.33,657.75c8.16-.02,16.32.04,24.47-.09-.08,9.41-1.03,21.22.16,30.39v15.91c.06,7.71.02,15.42-.13,23.13h-24.63c.06,6.83.05,13.68-.03,20.52-8.71.02-17.41-.03-26.12-.16v22.11c-7.18-1.03-21.89-.24-29.85-.17-17.1.12-34.21.14-51.31.05v-21.64c6.45.02,13.37.52,19.76-.27v-43.41c6.14-.93,13.23-.23,19.49-.22l41.75.07-.07-21.06,26.48.08c.1-8.41.03-16.84.03-25.25Z"/>
  <path class="st13" d="M634.24,703.83c8.24-.05,16.49,0,24.73.13.06,7.71.01,15.42-.13,23.13h-24.63s.03-23.26.03-23.26Z"/>
  <path class="st16" d="M747.53,564.76c6.49.55,13.17.23,19.68.18.04,7.22-.33,14.68.17,21.87.28,6.51.97,15.25-.13,21.58-.98-6.97.78-14.42-.33-21.4l-.78-.55c-6.01.29-12.11.11-18.14.15-.89,5.99-2.99,11.92-4.74,17.71l-7.31,23.94-18.8,61.77c-3.76,12.33-7.78,24.63-11.14,37.07,37.27-.04,74.7-.73,111.96.07,6.08-22.28,12.94-44.44,18.28-66.92l1.4.09c1.62,2.59.9,18.47.87,22.61-.04,6.94-.02,13.88.06,20.82-4.16.06-8.33.03-12.49.05.21,14.61.28,29.22.23,43.83-17.02-.44-34.13-.12-51.16-.12h-95c-.43-14.41.19-28.97.16-43.41,5.41-.06,10.82-.09,16.23-.08v-21.01s10.26,0,10.26,0l-.14-46.19h16.98c.04-8.41-.15-16.85-.23-25.27,2.53,0,5.06-.05,7.6-.07l.11-24.79c5.49.04,10.99-.01,16.48-.17l-.08-.93c.23-6.92.01-13.91.01-20.83Z"/>
  <path class="st8" d="M435.26,682.95c8.59.08,17.68.6,26.24-.06,2.76.05,5.54.17,8.3.06,10.21.13,20.42.16,30.62.08-.01,6.74.05,13.5-.05,20.24l25.94.07c.01,6.08-.39,12.49.19,18.52v5.22c-8.7-.02-17.44.15-26.14-.08l.1,20.3-84.26-.02c-6.12.09-12.23.09-18.35.01-.39-6.56-.07-13.3-.06-19.88l19.51.08c.13-7.13.04-14.27.08-21.4l.11-1.69c2.27-1.59,14.35-.67,17.8-.64l-.03-20.84Z"/>
  <path class="st10" d="M475.2,703.2l25.19.09v23.77s-25.27,0-25.27,0l.08-23.87Z"/>
  <path class="st13" d="M526.54,747.49c6.64-.1,13.5-.5,20.11.05-6.39.79-13.31.29-19.76.27v21.64c17.1.09,34.21.07,51.31-.05,7.96-.07,22.66-.86,29.84.17-3.83.65-8.22.27-12.1.23-5.83-.07-11.66-.07-17.49,0,.03,8.13,0,16.25-.09,24.38-21.06-.6-42.25-.11-63.33-.11l-117.2.04c-.19-8.21-.05-16.46-.06-24.67l128.7-.03.07-21.9Z"/>
  <path class="st17" d="M389.83,611.6l45.42.03c-.11,8.29-.05,16.59-.07,24.88-6.03-.24-12.11-.12-18.14-.17l.04,45.84c-6.44-.11-12.89-.07-19.33-.1l.05,21.72h-34.3s.01-67.01.01-67.01l26.36-.02-.04-25.18Z"/>
  <path class="st16" d="M767.69,541.92l19.42-.02c16.91.29,33.83-.09,50.74.11.04,7.46.63,15.49-.43,22.87,6.43-.04,13.18-.54,19.57-.04l.29.29c.01,7.14.15,14.3-.03,21.44,5.14.22,10.29.35,15.44.37l.03,24.27c-6.86-.06-13.82.13-20.66-.25,1.23-4.64,2.82-9.41,3.53-14.15l-.52-.17c.7-3.36,1.44-6.72,2.23-10.06-5.39-.07-15.71-1.04-20.65.33l-.04-.28c-17.18.85-34.57.47-51.76.42-5.61-.02-11.94-1.09-17.45-.22-.5-7.19-.13-14.65-.17-21.87-6.52.05-13.19.37-19.68-.18,4.13-.97,15.09-.22,19.8-.23.17-7.54.29-15.07.36-22.61Z"/>
  <path class="st11" d="M767.69,541.92l19.42-.02.04,23.09,49.86-.03c0,4.06.68,18.71-.43,21.65-17.18.85-34.57.47-51.76.42-5.61-.02-11.94-1.09-17.45-.22-.5-7.19-.13-14.65-.17-21.87-6.52.05-13.19.37-19.68-.18,4.13-.97,15.09-.22,19.8-.23.17-7.54.29-15.07.36-22.61Z"/>
  <path class="st14" d="M445.95,588.78c7.98-.12,16.02.23,23.99-.25.1,10.65.12,21.29.06,31.94,0,5.34-.39,11,.17,16.3h18.44s-.04,22.46-.04,22.46h11.98c-.14,7.93-.18,15.86-.13,23.79-10.21.08-20.42.05-30.62-.08-2.76.11-5.53,0-8.3-.06-8.56.66-17.65.14-26.24.06l-.02-23.72,10.9-.02c.94-6.23.25-13.52.25-19.88l-.43-50.55Z"/>
  <path class="st8" d="M461.44,659.05l8.52-.06c0,7.98.15,15.98-.17,23.95-2.76.11-5.53,0-8.3-.06l-.05-23.84Z"/>
  <path class="st15" d="M446.02,204.69h132.79s-.02,19.82-.02,19.82c-25.61.54-51.34.21-76.96.14-18.56-.05-37.24.34-55.8-.2,0-6.58-.13-13.18,0-19.76Z"/>
  <path class="st17" d="M305.15,224.41c20.39.42,40.88.03,61.28.03,6.38,0,17.22-.87,22.99.13,0,8.06-.09,16.13.03,24.19-7.78-1.11-21.79-.13-30.06-.03-13.18.16-26.36-.22-39.54-.07l-.39-.08c-4.43.85-9.68.21-14.2.1.01-5.46.31-11.05-.39-16.47-.13-2.54-.28-5.31.27-7.8Z"/>
  <path class="st12" d="M305.15,224.41c20.39.42,40.88.03,61.28.03,6.38,0,17.22-.87,22.99.13-8.27.78-16.9.33-25.21.32l-44.76-.07c.09,7.92.1,15.85.02,23.77-4.43.85-9.68.21-14.2.1.01-5.46.31-11.05-.39-16.47-.13-2.54-.28-5.31.27-7.8Z"/>
  <path class="st0" d="M706.19,588.71l-.02,22.89-25.56.02c0,8.29-.18,16.64.08,24.92l.03,21.32c-7.21-.67-14.69-.31-21.92-.21.13-15.36.18-30.71.14-46.07l21.8.02.06-23.22c8.41.13,17.02-.39,25.39.32Z"/>
  <path class="st14" d="M417.19,541.93c13.02-.1,26.04-.13,39.06-.08,6.18,0,12.44-.24,18.61,0,0,7.94.59,16.35-.21,24.22-1.45.09-2.89.17-4.34.2-10.28-.27-24.9-.93-34.92-.04l-18.22-.17v-24.13Z"/>
  <path class="st13" d="M344.48,727.14h31.61s-.07,20.58-.07,20.58c7.25-.16,14.51-.16,21.76,0-.1,7.23-.11,14.47-.02,21.7l-30.58.04c-.4-7.24-.18-14.56-.16-21.82-7.49-.26-15.03-.18-22.52-.25l-.02-20.25Z"/>
  <path class="st0" d="M435.4,566.23c10.02-.89,24.64-.24,34.92.04l.17,49.88c0,5.45.8,15.61-.31,20.64-.56-5.31-.18-10.96-.17-16.3.06-10.65.04-21.29-.06-31.94-7.97.48-16.01.13-23.99.25l.43,50.55c0,6.35.69,13.65-.25,19.88-.65-5.66-.24-11.74-.23-17.45l.02-30.12h-10.66c.1-15.14-.14-30.28.14-45.41Z"/>
  <path class="st12" d="M838.08,654.38c.07.15.15.3.21.46.31.8.31,1.48.35,2.33.78.83,2.03.67,3.15.72,7.97.31,15.96-.38,23.95,0-.02,8.29.03,16.58.14,24.87-8.42.36-19.69-.67-27.35.17.03-4.14.75-20.02-.87-22.61l-1.4-.09,1.83-5.85Z"/>
  <path class="st15" d="M319.86,248.67c13.18-.15,26.36.23,39.54.07,8.26-.1,22.28-1.08,30.06.03-7.91.9-16.49.19-24.47.09l-.11,24.43c-8.44.14-16.88.16-25.31.04-.02-8.07.01-16.14.1-24.21-5.41-.16-15.01,1-19.8-.45Z"/>
  <path class="st15" d="M706.17,611.61c.02,8.37-.07,16.76.07,25.13-8.51-.17-17.03-.23-25.54-.18-.27-8.29-.08-16.63-.08-24.92l25.56-.02Z"/>
  <path class="st3" d="M416.22,187.68c7.14-.54,14.57-.13,21.74-.13h41.49s129.9.02,129.9.02c-.18,5.66-.06,11.36-.07,17.02h25.47s.1,19.38.1,19.38l-.9.23c-1.38-2.13-.65-15.13-.48-18.32-8.42.63-17.06.23-25.51-.06-.05-5.57-.04-11.14.04-16.71l-137.36.08c-17.8,0-35.65-.26-53.44.05.02,5.52.18,11.09-.03,16.61-21.34.57-42.76.25-64.11.23-15.7-.02-31.55.45-47.23-.06.04,4.99,1.06,14-.67,18.39l-.66-.55c.38-6.38.12-12.83-.06-19.22l111.89-.04-.1-16.92Z"/>
  <path class="st19" d="M500.35,727.01c8.69.22,17.43.06,26.13.08.04,6.84.04,13.68-.02,20.53l-86.05.12c-14.18,0-28.47.41-42.63-.01l.04-.41c6.12.08,12.24.07,18.35-.01l84.26.02-.1-20.3Z"/>
  <path class="st15" d="M635.54,249.03c7.34-.87,15.19-.32,22.59-.27,7.71.05,15.61-.25,23.29.24,0,8.09-.13,16.21.02,24.3-6.92,0-13.86.12-20.78-.19-.82-.2-.81-.11-1.46-.76-1.15-6.47-.49-16.39-.31-23.12-7.74,0-15.63.3-23.35-.21Z"/>
  <path class="st15" d="M658.8,657.66c7.23-.1,14.72-.46,21.92.21,0,8.37-.11,16.75.13,25.11-5.22-.06-17.06-1.01-21.45.19-.36,1.67-.44,3.18-.44,4.88-1.19-9.17-.24-20.98-.16-30.39Z"/>
  <path class="st19" d="M500.55,659.24c1.22,3.28.2,19.35.22,23.79h25.78s.19,23.67.19,23.67c.05,4.92.38,10.3-.24,15.17-.58-6.04-.17-12.44-.19-18.52l-25.94-.07c.11-6.74.04-13.5.05-20.24-.05-7.93,0-15.86.13-23.79Z"/>
  <path class="st15" d="M846.15,632.16c-.01,1.69-.25,3.64.47,5.2,6.13.83,12.94.25,19.14.23l-.03,20.3c-7.98-.38-15.98.31-23.95,0-1.12-.04-2.37.11-3.15-.72-.04-.85-.04-1.53-.35-2.33-.06-.16-.14-.3-.21-.46,1.5-5.64,2.06-10.51,1.98-16.35l5.54-.74c.08-1.75.24-3.41.55-5.13Z"/>
  <path class="st3" d="M799.67,343.65l.64.44c.48,5.48.16,11.15.15,16.66v31.16s.03,102.95.03,102.95l-24.78-.05.04,33.16c15.81-.02,31.65-.26,47.45.02-.07.67.05.3-.55,1.02-5.17.68-10.81.27-16.05.27l-32.07-.02c-.6-11.75-.37-23.85-.02-35.62,8.13-.54,16.46-.24,24.61-.15-.43-11.43-.23-22.92-.24-34.36l.02-57.4v-36.38c0-6.17-.37-12.6.05-18.74.08-1.12.31-1.95.72-2.98Z"/>
  <path class="st3" d="M853.44,528c1.41-.04,2.81-.22,4.14.32.51,11.89-.1,23.86.17,35.77,10.45-.24,21.19.45,31.59-.38l.09,119.35h-10.89c2.99-1.15,6.27-.93,9.43-1l.06-117.01c-8.52.84-22.31.94-30.75.08l-.29-.29c-.79-5.59-.1-33.4-1.08-35.61-.74-.08-1.44-.2-2.17-.36l-.3-.87Z"/>
  <path class="st3" d="M731.22,296.27l18.09-.05v22.08s26.46-.04,26.46-.04c0,8.35-.2,16.76.16,25.1l-1.07.14c-1.44-2.88-.47-19.4-.43-23.68-8.79.02-17.62.25-26.4-.19-.19-7.33,0-14.69.03-22.02-4.59.05-9.39.32-13.95-.05-1.45-.12-1.91-.18-2.89-1.28Z"/>
  <path class="st3" d="M707.01,273.37c7.94-.12,15.88-.15,23.82-.09.04,5.86.96,17.53-.32,22.69l-.72-.6c-1.37-5.2-.42-15.11-.33-20.7-4.4-.08-19.52,1.14-22.45-1.3Z"/>
  <path class="st5" d="M658.39,727.46c3.21,0,16.37-.67,18.31.7l-.55.64-17.08.04c.02,3.08.77,17.57-.66,19.31h-1.14c-.02-.27-.07-.53-.05-.8.59-6.53-.02-13.42,1.17-19.88Z"/>
  <path class="st4" d="M864.21,702.67c.92-5.24-.77-15.63,1.69-19.6.83,6.98-.14,14.1.67,21.1-2.65-.02-5.32.02-7.97-.07,1.38-1.04,3.92-1.14,5.62-1.43Z"/>
  <path class="st4" d="M631.57,770.39c4.06-4.03-.74-15.85,2.65-21.47.52,6.53.86,14.3.18,20.8-.91.69-1.74.63-2.83.66Z"/>
</svg>